# Blender 4.5.2 LTS
# www.blender.org
mtllib Missile.mtl
o Skyguard_Sparrow3
v 1.906238 -0.000009 0.000023
v -1.556336 0.001030 -0.002616
v 1.868331 -0.000009 -0.026306
v -1.593962 -0.000009 -0.065669
v 1.868331 -0.018627 -0.018594
v -1.593962 -0.046461 -0.046428
v 1.868331 -0.026338 0.000023
v -1.593962 -0.065702 0.000023
v 1.868331 -0.018627 0.018641
v -1.593962 -0.046461 0.046475
v 1.868331 -0.000009 0.026352
v -1.593962 -0.000009 0.065716
v 1.868331 0.018608 0.018641
v -1.593962 0.046442 0.046475
v 1.868331 0.026320 0.000023
v -1.593962 0.065683 0.000023
v 1.868331 0.018608 -0.018594
v -1.593962 0.046442 -0.046428
v -1.377371 -0.062644 -0.062612
v -1.377371 -0.000009 -0.088556
v -1.377371 -0.088588 0.000023
v -1.377371 -0.062644 0.062658
v -1.377371 -0.000009 0.088602
v -1.377371 0.062626 0.062658
v -1.377371 0.088570 0.000023
v -1.377371 0.062626 -0.062612
v 1.726356 -0.051311 -0.051278
v 1.608568 -0.062644 -0.062612
v 1.726356 -0.072560 0.000023
v 1.608568 -0.088588 0.000023
v 1.726356 -0.051311 0.051325
v 1.608568 -0.062644 0.062658
v 1.726356 -0.000009 0.072574
v 1.608568 -0.000009 0.088602
v 1.726356 0.051292 0.051325
v 1.608568 0.062626 0.062658
v 1.726356 0.072542 0.000023
v 1.608568 0.088570 0.000023
v 1.726356 0.051292 -0.051278
v 1.608568 0.062626 -0.062612
v 1.608568 -0.000009 -0.088556
v 1.726356 -0.000009 -0.072528
v 1.818922 -0.034231 -0.034198
v 1.818922 -0.048406 0.000023
v 1.818922 -0.034231 0.034245
v 1.818922 -0.000009 0.048420
v 1.818922 0.034213 0.034245
v 1.818922 0.048388 0.000023
v 1.818922 0.034213 -0.034198
v 1.818922 -0.000009 -0.048374
v -1.478256 0.163286 0.163319
v -1.576638 0.160412 0.160444
v -1.573686 0.025823 0.025855
v -1.431940 0.030866 0.020812
v -1.478256 0.142585 0.146123
v -1.478256 0.146091 0.142617
v -1.168795 0.025823 0.025855
v -1.431940 0.020780 0.030898
v 0.446458 0.032754 0.048682
v 0.678492 0.040702 0.040734
v 0.405618 0.230245 0.224752
v 0.405618 0.224720 0.230277
v 0.446458 0.048650 0.032787
v 0.321471 0.040702 0.040734
v 0.318868 0.252815 0.252847
v 0.405618 0.257345 0.257377
v 0.405618 -0.224738 0.230277
v 0.405618 -0.257363 0.257377
v 0.678492 -0.040720 0.040734
v 0.405618 -0.230263 0.224752
v 0.446458 -0.032773 0.048682
v 0.446458 -0.048668 0.032787
v 0.318868 -0.252833 0.252847
v 0.321471 -0.040720 0.040734
v -1.573686 -0.025841 0.025855
v -1.431940 -0.030884 0.020812
v -1.576638 -0.160430 0.160444
v -1.478256 -0.142603 0.146123
v -1.431940 -0.020798 0.030898
v -1.478256 -0.146109 0.142617
v -1.478256 -0.163305 0.163319
v -1.168795 -0.025841 0.025855
v 0.405618 -0.230263 -0.224706
v 0.405618 -0.257363 -0.257331
v 0.678492 -0.040720 -0.040688
v 0.405618 -0.224738 -0.230231
v 0.446458 -0.048668 -0.032740
v 0.446458 -0.032773 -0.048636
v 0.318868 -0.252833 -0.252801
v 0.321471 -0.040720 -0.040688
v -1.573686 -0.025841 -0.025809
v -1.431940 -0.020798 -0.030852
v -1.576638 -0.160430 -0.160398
v -1.478256 -0.146109 -0.142571
v -1.431940 -0.030884 -0.020766
v -1.478256 -0.142603 -0.146077
v -1.478256 -0.163305 -0.163272
v -1.168795 -0.025841 -0.025809
v 0.405618 0.224720 -0.230231
v 0.405618 0.257345 -0.257331
v 0.678492 0.040702 -0.040688
v 0.405618 0.230245 -0.224706
v 0.446458 0.032754 -0.048636
v 0.446458 0.048650 -0.032740
v 0.318868 0.252815 -0.252801
v 0.321471 0.040702 -0.040688
v -1.573686 0.025823 -0.025809
v -1.431940 0.030866 -0.020766
v -1.576638 0.160412 -0.160398
v -1.478256 0.142585 -0.146077
v -1.431940 0.020780 -0.030852
v -1.478256 0.146091 -0.142571
v -1.478256 0.163286 -0.163272
v -1.168795 0.025823 -0.025809
vn 0.4918 -0.6157 -0.6157
vn 0.4919 -0.0000 -0.8707
vn 1.0000 -0.0000 -0.0000
vn 0.3316 -0.6671 -0.6671
vn 0.3316 -0.0000 -0.9434
vn -0.8587 -0.0010 0.5124
vn -0.8639 0.3543 0.3579
vn -0.9999 -0.0038 0.0098
vn 0.4918 -0.8707 -0.0000
vn -0.8710 0.4912 0.0024
vn 0.4919 -0.6157 0.6157
vn 0.3260 -0.9453 0.0067
vn -0.8759 0.3419 -0.3405
vn 0.4918 -0.0000 0.8707
vn 0.3316 -0.0000 0.9434
vn 0.3260 -0.6637 0.6733
vn -0.8760 -0.0009 -0.4824
vn 0.4918 0.6157 0.6157
vn -0.8713 -0.3487 -0.3453
vn 0.4919 0.8707 -0.0000
vn 0.3260 0.6732 0.6637
vn -0.8642 -0.5031 0.0025
vn 0.4918 0.6157 -0.6157
vn 0.3316 0.6671 -0.6671
vn 0.3260 0.9453 -0.0067
vn -0.8589 -0.3614 0.3630
vn -0.1051 -0.0000 -0.9945
vn -0.1051 -0.7032 -0.7032
vn -0.1051 -0.9945 -0.0000
vn -0.1051 -0.7032 0.7032
vn -0.1051 -0.0000 0.9945
vn -0.1051 0.7032 0.7032
vn -0.1051 0.9945 -0.0000
vn -0.1051 0.7032 -0.7032
vn 0.1348 -0.7007 -0.7006
vn 0.1941 -0.0000 -0.9810
vn 0.1941 -0.6937 -0.6937
vn -0.0000 -0.0000 -1.0000
vn -0.0000 -0.7071 -0.7071
vn 0.1348 -0.9909 -0.0000
vn 0.1941 -0.9810 -0.0000
vn -0.0000 -1.0000 -0.0000
vn 0.1941 -0.6937 0.6937
vn 0.1348 -0.7007 0.7006
vn -0.0000 -0.7071 0.7071
vn 0.1941 -0.0000 0.9810
vn 0.1348 -0.0000 0.9909
vn -0.0000 -0.0000 1.0000
vn 0.1941 0.6937 0.6937
vn 0.1348 0.7006 0.7007
vn -0.0000 0.7071 0.7071
vn 0.1941 0.9810 -0.0000
vn 0.1348 0.9909 -0.0000
vn -0.0000 1.0000 -0.0000
vn 0.1941 0.6937 -0.6937
vn 0.1348 0.7006 -0.7006
vn -0.0000 0.7071 -0.7071
vn 0.1348 -0.0000 -0.9909
vn -0.0503 -0.7068 0.7057
vn -0.0144 -0.6935 0.7203
vn -0.0247 -0.6796 0.7332
vn 0.0153 0.7485 -0.6630
vn -0.0144 0.7203 -0.6935
vn -0.0247 0.7331 -0.6796
vn -0.0503 0.7057 -0.7068
vn 0.0152 -0.6629 0.7485
vn 0.0270 -0.6387 0.7690
vn 0.0270 0.7690 -0.6387
vn 0.0424 -0.6600 0.7500
vn 0.0424 0.7500 -0.6601
vn 0.0425 -0.6600 0.7500
vn 0.0272 0.7483 -0.6629
vn 0.0481 0.7683 -0.6382
vn 0.0757 0.7485 -0.6588
vn 0.0272 -0.6629 0.7483
vn 0.0757 -0.6588 0.7485
vn 0.0481 -0.6382 0.7683
vn -0.0257 0.7201 -0.6934
vn -0.0257 -0.6934 0.7201
vn -0.0441 0.7327 -0.6791
vn -0.0441 -0.6791 0.7327
vn -0.0896 0.7037 -0.7048
vn -0.0896 -0.7048 0.7037
vn 0.0272 0.6629 0.7483
vn 0.0481 0.6382 0.7683
vn 0.0757 0.6588 0.7485
vn 0.0272 -0.7483 -0.6629
vn 0.0757 -0.7485 -0.6588
vn 0.0481 -0.7683 -0.6382
vn -0.0257 0.6934 0.7201
vn -0.0257 -0.7201 -0.6934
vn -0.0441 0.6791 0.7327
vn -0.0441 -0.7327 -0.6791
vn -0.0896 0.7048 0.7037
vn -0.0896 -0.7037 -0.7048
vn -0.0503 -0.7057 -0.7068
vn -0.0144 -0.7203 -0.6935
vn -0.0247 -0.7331 -0.6796
vn 0.0153 0.6630 0.7485
vn -0.0144 0.6935 0.7203
vn -0.0247 0.6796 0.7332
vn -0.0503 0.7068 0.7057
vn 0.0153 -0.7485 -0.6630
vn 0.0270 -0.7690 -0.6387
vn 0.0270 0.6387 0.7690
vn 0.0424 -0.7500 -0.6600
vn 0.0424 0.6601 0.7500
vn 0.0272 -0.7483 0.6628
vn 0.0481 -0.7683 0.6382
vn 0.0757 -0.7485 0.6588
vn 0.0272 0.6629 -0.7483
vn 0.0757 0.6588 -0.7485
vn 0.0481 0.6382 -0.7683
vn -0.0257 -0.7201 0.6934
vn -0.0257 0.6934 -0.7201
vn -0.0441 -0.7327 0.6791
vn -0.0441 0.6791 -0.7327
vn -0.0896 -0.7037 0.7048
vn -0.0896 0.7048 -0.7037
vn -0.0503 0.7068 -0.7057
vn -0.0144 0.6935 -0.7203
vn -0.0247 0.6796 -0.7332
vn 0.0153 -0.7485 0.6629
vn -0.0144 -0.7203 0.6935
vn -0.0247 -0.7332 0.6796
vn -0.0503 -0.7057 0.7068
vn 0.0153 0.6630 -0.7485
vn 0.0270 0.6387 -0.7690
vn 0.0270 -0.7690 0.6387
vn 0.0424 0.6600 -0.7500
vn 0.0424 -0.7500 0.6601
vn 0.0424 0.6601 -0.7500
vn 0.0272 -0.6629 -0.7483
vn 0.0481 -0.6382 -0.7683
vn 0.0757 -0.6588 -0.7485
vn 0.0272 0.7483 0.6629
vn 0.0757 0.7485 0.6588
vn 0.0481 0.7683 0.6382
vn -0.0257 -0.6934 -0.7201
vn -0.0257 0.7201 0.6934
vn -0.0441 -0.6791 -0.7327
vn -0.0441 0.7327 0.6791
vn -0.0896 -0.7048 -0.7037
vn -0.0896 0.7037 0.7048
vn -0.0503 0.7057 0.7068
vn -0.0144 0.7203 0.6935
vn -0.0247 0.7332 0.6796
vn 0.0153 -0.6630 -0.7485
vn -0.0144 -0.6935 -0.7203
vn -0.0247 -0.6796 -0.7332
vn -0.0503 -0.7068 -0.7057
vn 0.0153 0.7485 0.6630
vn 0.0270 0.7690 0.6387
vn 0.0270 -0.6387 -0.7690
vn 0.0424 0.7500 0.6600
vn 0.0424 -0.6601 -0.7500
vt 0.258523 0.022623
vt 0.248284 0.026168
vt 0.223702 0.016919
vt 0.283199 0.034334
vt 0.264781 0.040498
vt 0.448250 0.051738
vt 0.462031 0.036069
vt 0.493344 0.052054
vt 0.261391 0.018082
vt 0.495027 0.029648
vt 0.188893 0.022638
vt 0.186017 0.018099
vt 0.150490 0.026524
vt 0.527846 0.036154
vt 0.199139 0.026179
vt 0.182670 0.040516
vt 0.164240 0.034361
vt 0.541442 0.051740
vt 0.211147 0.028272
vt 0.527911 0.067358
vt 0.223714 0.028984
vt 0.202843 0.044229
vt 0.495025 0.073898
vt 0.236280 0.028266
vt 0.244615 0.044220
vt 0.223730 0.045460
vt 0.461955 0.067443
vt 0.877036 0.984913
vt 0.928517 0.919904
vt 0.912229 0.985467
vt 0.970524 0.921587
vt 0.944669 0.986969
vt 0.686071 0.985467
vt 0.627776 0.921587
vt 0.669783 0.919904
vt 0.712863 0.919904
vt 0.721264 0.984913
vt 0.759549 0.984979
vt 0.755986 0.919904
vt 0.799150 0.984992
vt 0.799151 0.919904
vt 0.838751 0.984979
vt 0.842316 0.919904
vt 0.885437 0.919904
vt 0.361302 0.087646
vt 0.291849 0.066323
vt 0.321189 0.057137
vt 0.928939 0.020328
vt 0.395800 0.074864
vt 0.346059 0.046406
vt 0.972035 0.020554
vt 0.051718 0.074940
vt 0.126295 0.057180
vt 0.086241 0.087706
vt 0.669362 0.020328
vt 0.155652 0.066353
vt 0.126481 0.098712
vt 0.712581 0.019997
vt 0.188639 0.072389
vt 0.173152 0.106571
vt 0.755845 0.019997
vt 0.223758 0.074460
vt 0.223793 0.109382
vt 0.799151 0.019995
vt 0.258874 0.072374
vt 0.274428 0.106549
vt 0.842456 0.019997
vt 0.321083 0.098669
vt 0.885721 0.019997
vt 0.296934 0.026492
vt 0.101404 0.046459
vt 0.058483 0.798436
vt 0.146166 0.798465
vt 0.056512 0.854275
vt 0.499801 0.848071
vt 0.471439 0.798837
vt 0.560573 0.854801
vt 0.559121 0.798950
vt 0.117302 0.847616
vt 0.117299 0.855512
vt 0.499774 0.855962
vt 0.308816 0.798725
vt 0.491798 0.966721
vt 0.491614 0.980268
vt 0.308653 0.882108
vt 0.124240 0.966079
vt 0.124102 0.979619
vt 0.464954 0.882265
vt 0.152368 0.881693
vt 0.550023 0.978356
vt 0.065738 0.977428
vt 0.549378 0.882520
vt 0.067939 0.881584
vt 0.491798 0.308588
vt 0.491614 0.322135
vt 0.308653 0.223975
vt 0.124240 0.307946
vt 0.124102 0.321486
vt 0.464954 0.224132
vt 0.152368 0.223560
vt 0.550023 0.320223
vt 0.065738 0.319296
vt 0.549378 0.224387
vt 0.067939 0.223452
vt 0.058483 0.134444
vt 0.146166 0.134472
vt 0.056512 0.190282
vt 0.499801 0.184078
vt 0.471439 0.134844
vt 0.560573 0.190808
vt 0.559121 0.134957
vt 0.117302 0.183623
vt 0.117299 0.191520
vt 0.499774 0.191969
vt 0.308816 0.134732
vt 0.491798 0.533749
vt 0.491614 0.547296
vt 0.308653 0.449136
vt 0.124240 0.533107
vt 0.124102 0.546647
vt 0.464954 0.449293
vt 0.152368 0.448721
vt 0.550023 0.545384
vt 0.065738 0.544456
vt 0.549378 0.449548
vt 0.067939 0.448612
vt 0.058483 0.356674
vt 0.146166 0.356703
vt 0.056512 0.412513
vt 0.499801 0.406309
vt 0.471439 0.357075
vt 0.560573 0.413038
vt 0.559121 0.357187
vt 0.117302 0.405854
vt 0.117299 0.413750
vt 0.499774 0.414200
vt 0.308816 0.356963
vt 0.491798 0.751431
vt 0.491614 0.764979
vt 0.308653 0.666818
vt 0.124240 0.750789
vt 0.124102 0.764329
vt 0.464954 0.666975
vt 0.152368 0.666403
vt 0.550023 0.763067
vt 0.065738 0.762139
vt 0.549378 0.667230
vt 0.067939 0.666295
vt 0.058483 0.580217
vt 0.146166 0.580245
vt 0.056512 0.636055
vt 0.499801 0.629851
vt 0.471439 0.580617
vt 0.560573 0.636581
vt 0.559121 0.580730
vt 0.117302 0.629397
vt 0.117299 0.637293
vt 0.499774 0.637743
vt 0.308816 0.580505
vt 0.653631 0.986969
vt 0.626266 0.020554
s 1
usemtl skyguard_sparrow
f 5/1/1 3/2/2 1/3/3
f 3/2/2 43/4/4 50/5/5
f 4/6/6 6/7/7 2/8/8
f 7/9/9 5/1/1 1/3/3
f 7/9/9 43/4/4 5/1/1
f 6/7/7 8/10/10 2/8/8
f 9/11/11 7/12/9 1/3/3
f 9/11/11 44/13/12 7/12/9
f 8/10/10 10/14/13 2/8/8
f 11/15/14 9/11/11 1/3/3
f 9/11/11 46/16/15 45/17/16
f 10/14/13 12/18/17 2/8/8
f 13/19/18 11/15/14 1/3/3
f 13/19/18 46/16/15 11/15/14
f 12/18/17 14/20/19 2/8/8
f 15/21/20 13/19/18 1/3/3
f 15/21/20 47/22/21 13/19/18
f 14/20/19 16/23/22 2/8/8
f 17/24/23 15/21/20 1/3/3
f 15/21/20 49/25/24 48/26/25
f 16/23/22 18/27/26 2/8/8
f 3/2/2 17/24/23 1/3/3
f 3/2/2 49/25/24 17/24/23
f 18/27/26 4/6/6 2/8/8
f 4/28/27 19/29/28 6/30/28
f 6/30/28 21/31/29 8/32/29
f 10/33/30 21/34/29 22/35/30
f 10/33/30 23/36/31 12/37/31
f 14/38/32 23/36/31 24/39/32
f 16/40/33 24/39/32 25/41/33
f 18/42/34 25/41/33 26/43/34
f 18/42/34 20/44/27 4/28/27
f 28/45/35 42/46/36 27/47/37
f 20/44/38 28/48/39 19/29/39
f 30/49/40 27/47/37 29/50/41
f 19/29/39 30/51/42 21/31/42
f 30/52/40 31/53/43 32/54/44
f 21/34/42 32/55/45 22/35/45
f 32/54/44 33/56/46 34/57/47
f 22/35/45 34/58/48 23/36/48
f 34/57/47 35/59/49 36/60/50
f 23/36/48 36/61/51 24/39/51
f 36/60/50 37/62/52 38/63/53
f 24/39/51 38/64/54 25/41/54
f 38/63/53 39/65/55 40/66/56
f 25/41/54 40/67/57 26/43/57
f 41/68/58 39/65/55 42/46/36
f 26/43/57 41/69/38 20/44/38
f 27/47/37 50/5/5 43/4/4
f 29/50/41 43/4/4 44/70/12
f 29/71/41 45/17/16 31/53/43
f 33/56/46 45/17/16 46/16/15
f 35/59/49 46/16/15 47/22/21
f 37/62/52 47/22/21 48/26/25
f 37/62/52 49/25/24 39/65/55
f 39/65/55 50/5/5 42/46/36
f 53/72/59 58/73/60 52/74/61
f 56/75/62 54/76/63 52/77/64
f 53/78/65 52/77/64 54/76/63
f 55/79/66 51/80/67 52/74/61
f 52/74/61 58/73/60 55/79/66
f 56/75/62 52/77/64 51/81/68
f 57/82/69 55/79/66 58/73/60
f 57/82/70 54/76/63 56/75/62
f 55/79/66 57/82/71 51/80/67
f 56/75/62 51/81/68 57/82/70
f 61/83/72 66/84/73 60/85/74
f 62/86/75 60/85/76 66/87/77
f 60/85/74 63/88/78 61/83/72
f 60/85/76 62/86/75 59/89/79
f 61/83/72 65/90/80 66/84/73
f 65/91/81 59/89/79 62/86/75
f 62/86/75 66/87/77 65/91/81
f 64/92/82 65/90/80 63/88/78
f 61/83/72 63/88/78 65/90/80
f 64/93/83 59/89/79 65/91/81
f 67/94/84 68/95/85 69/96/86
f 70/97/87 69/96/88 68/98/89
f 69/96/86 71/99/90 67/94/84
f 69/96/88 70/97/87 72/100/91
f 67/94/84 73/101/92 68/95/85
f 73/102/93 72/100/91 70/97/87
f 70/97/87 68/98/89 73/102/93
f 74/103/94 73/101/92 71/99/90
f 67/94/84 71/99/90 73/101/92
f 74/104/95 72/100/91 73/102/93
f 75/105/96 76/106/97 77/107/98
f 78/108/99 79/109/100 77/110/101
f 75/111/102 77/110/101 79/109/100
f 80/112/103 81/113/104 77/107/98
f 77/107/98 76/106/97 80/112/103
f 78/108/99 77/110/101 81/114/105
f 82/115/106 80/112/103 76/106/97
f 82/115/107 79/109/100 78/108/99
f 80/112/103 82/115/106 81/113/104
f 78/108/99 81/114/105 82/115/107
f 83/116/108 84/117/109 85/118/110
f 86/119/111 85/118/112 84/120/113
f 85/118/110 87/121/114 83/116/108
f 85/118/112 86/119/111 88/122/115
f 83/116/108 89/123/116 84/117/109
f 89/124/117 88/122/115 86/119/111
f 86/119/111 84/120/113 89/124/117
f 90/125/118 89/123/116 87/121/114
f 83/116/108 87/121/114 89/123/116
f 90/126/119 88/122/115 89/124/117
f 91/127/120 92/128/121 93/129/122
f 94/130/123 95/131/124 93/132/125
f 91/133/126 93/132/125 95/131/124
f 96/134/127 97/135/128 93/129/122
f 93/129/122 92/128/121 96/134/127
f 94/130/123 93/132/125 97/136/129
f 98/137/130 96/134/127 92/128/121
f 98/137/131 95/131/124 94/130/123
f 96/134/127 98/137/132 97/135/128
f 94/130/123 97/136/129 98/137/131
f 99/138/133 100/139/134 101/140/135
f 102/141/136 101/140/137 100/142/138
f 101/140/135 103/143/139 99/138/133
f 101/140/137 102/141/136 104/144/140
f 99/138/133 105/145/141 100/139/134
f 105/146/142 104/144/140 102/141/136
f 102/141/136 100/142/138 105/146/142
f 106/147/143 105/145/141 103/143/139
f 99/138/133 103/143/139 105/145/141
f 106/148/144 104/144/140 105/146/142
f 107/149/145 108/150/146 109/151/147
f 110/152/148 111/153/149 109/154/150
f 107/155/151 109/154/150 111/153/149
f 112/156/152 113/157/153 109/151/147
f 109/151/147 108/150/146 112/156/152
f 110/152/148 109/154/150 113/158/154
f 114/159/155 112/156/152 108/150/146
f 114/159/156 111/153/149 110/152/148
f 112/156/152 114/159/155 113/157/153
f 110/152/148 113/158/154 114/159/156
f 3/2/2 5/1/1 43/4/4
f 7/9/9 44/70/12 43/4/4
f 9/11/11 45/17/16 44/13/12
f 9/11/11 11/15/14 46/16/15
f 13/19/18 47/22/21 46/16/15
f 15/21/20 48/26/25 47/22/21
f 15/21/20 17/24/23 49/25/24
f 3/2/2 50/5/5 49/25/24
f 4/28/27 20/44/27 19/29/28
f 6/30/28 19/29/28 21/31/29
f 10/33/30 8/160/29 21/34/29
f 10/33/30 22/35/30 23/36/31
f 14/38/32 12/37/31 23/36/31
f 16/40/33 14/38/32 24/39/32
f 18/42/34 16/40/33 25/41/33
f 18/42/34 26/43/34 20/44/27
f 28/45/35 41/68/58 42/46/36
f 20/44/38 41/69/38 28/48/39
f 30/49/40 28/45/35 27/47/37
f 19/29/39 28/48/39 30/51/42
f 30/52/40 29/71/41 31/53/43
f 21/34/42 30/161/42 32/55/45
f 32/54/44 31/53/43 33/56/46
f 22/35/45 32/55/45 34/58/48
f 34/57/47 33/56/46 35/59/49
f 23/36/48 34/58/48 36/61/51
f 36/60/50 35/59/49 37/62/52
f 24/39/51 36/61/51 38/64/54
f 38/63/53 37/62/52 39/65/55
f 25/41/54 38/64/54 40/67/57
f 41/68/58 40/66/56 39/65/55
f 26/43/57 40/67/57 41/69/38
f 27/47/37 42/46/36 50/5/5
f 29/50/41 27/47/37 43/4/4
f 29/71/41 44/13/12 45/17/16
f 33/56/46 31/53/43 45/17/16
f 35/59/49 33/56/46 46/16/15
f 37/62/52 35/59/49 47/22/21
f 37/62/52 48/26/25 49/25/24
f 39/65/55 49/25/24 50/5/5
