# Blender 4.4.1
# www.blender.org
mtllib Bullet.mtl
o 9mm_Cylinder
v 0.000000 -0.209172 0.129863
v 0.000000 -0.209172 0.731397
v -0.054120 -0.202038 0.129863
v -0.054120 -0.202038 0.731397
v -0.104586 -0.181165 0.129863
v -0.104586 -0.181165 0.731397
v -0.147918 -0.147918 0.129863
v -0.147918 -0.147918 0.731397
v -0.181165 -0.104586 0.129863
v -0.181165 -0.104586 0.731397
v -0.202038 -0.054120 0.129863
v -0.202038 -0.054121 0.731397
v -0.209172 -0.000000 0.129863
v -0.209172 -0.000000 0.731397
v -0.202038 0.054120 0.129863
v -0.202038 0.054120 0.731397
v -0.181165 0.104586 0.129863
v -0.181165 0.104586 0.731397
v -0.147918 0.147917 0.129863
v -0.147918 0.147917 0.731397
v -0.104586 0.181165 0.129863
v -0.104586 0.181165 0.731397
v -0.054120 0.202038 0.129863
v -0.054120 0.202038 0.731397
v 0.000000 0.209172 0.129863
v 0.000000 0.209172 0.731397
v 0.054120 0.202038 0.129863
v 0.054120 0.202038 0.731397
v 0.104586 0.181165 0.129863
v 0.104586 0.181165 0.731397
v 0.147918 0.147917 0.129863
v 0.147918 0.147917 0.731397
v 0.181165 0.104586 0.129863
v 0.181165 0.104586 0.731397
v 0.202038 0.054120 0.129863
v 0.202038 0.054120 0.731397
v 0.209172 -0.000000 0.129863
v 0.209172 -0.000000 0.731397
v 0.202038 -0.054120 0.129863
v 0.202038 -0.054121 0.731397
v 0.181165 -0.104586 0.129863
v 0.181165 -0.104586 0.731397
v 0.147918 -0.147918 0.129863
v 0.147918 -0.147918 0.731397
v 0.104586 -0.181165 0.129863
v 0.104586 -0.181165 0.731397
v 0.054120 -0.202038 0.129863
v 0.054120 -0.202038 0.731397
v 0.000000 -0.202787 0.120879
v -0.052491 -0.195917 0.120879
v -0.101415 -0.175616 0.120879
v -0.143426 -0.143426 0.120879
v -0.175616 -0.101415 0.120879
v -0.195917 -0.052491 0.120879
v -0.202787 -0.000000 0.120879
v -0.195917 0.052491 0.120879
v -0.175616 0.101415 0.120879
v -0.143426 0.143426 0.120879
v -0.101415 0.175616 0.120879
v -0.052491 0.195917 0.120879
v 0.000000 0.202787 0.120879
v 0.052491 0.195917 0.120879
v 0.101415 0.175616 0.120879
v 0.143426 0.143426 0.120879
v 0.175616 0.101415 0.120879
v 0.195917 0.052491 0.120879
v 0.202787 -0.000000 0.120879
v 0.195917 -0.052491 0.120879
v 0.175616 -0.101415 0.120879
v 0.143426 -0.143426 0.120879
v 0.101415 -0.175616 0.120879
v 0.052491 -0.195917 0.120879
v 0.000000 -0.177422 0.086883
v -0.045930 -0.171345 0.086883
v -0.088689 -0.153642 0.086883
v -0.125459 -0.125459 0.086883
v -0.153642 -0.088689 0.086883
v -0.171345 -0.045930 0.086883
v -0.177422 -0.000000 0.086883
v -0.171345 0.045930 0.086883
v -0.153642 0.088689 0.086883
v -0.125459 0.125459 0.086883
v -0.088689 0.153642 0.086883
v -0.045930 0.171345 0.086883
v 0.000000 0.177422 0.086883
v 0.045930 0.171345 0.086883
v 0.088689 0.153642 0.086883
v 0.125459 0.125459 0.086883
v 0.153642 0.088689 0.086883
v 0.171345 0.045930 0.086883
v 0.177422 -0.000000 0.086883
v 0.171345 -0.045930 0.086883
v 0.153642 -0.088689 0.086883
v 0.125459 -0.125459 0.086883
v 0.088689 -0.153642 0.086883
v 0.045930 -0.171345 0.086883
v 0.000000 -0.177422 0.060021
v -0.045930 -0.171345 0.060021
v -0.088689 -0.153642 0.060021
v -0.125459 -0.125459 0.060021
v -0.153642 -0.088689 0.060021
v -0.171345 -0.045930 0.060021
v -0.177422 -0.000000 0.060021
v -0.171345 0.045930 0.060021
v -0.153642 0.088689 0.060021
v -0.125459 0.125459 0.060021
v -0.088689 0.153642 0.060021
v -0.045930 0.171345 0.060021
v 0.000000 0.177422 0.060021
v 0.045930 0.171345 0.060021
v 0.088689 0.153642 0.060021
v 0.125459 0.125459 0.060021
v 0.153642 0.088689 0.060021
v 0.171345 0.045930 0.060021
v 0.177422 -0.000000 0.060021
v 0.171345 -0.045930 0.060021
v 0.153642 -0.088689 0.060021
v 0.125459 -0.125459 0.060021
v 0.088689 -0.153642 0.060021
v 0.045930 -0.171345 0.060021
v 0.000000 -0.205517 0.060021
v -0.053196 -0.198515 0.060021
v -0.102736 -0.177950 0.060021
v -0.145319 -0.145319 0.060021
v -0.177950 -0.102736 0.060021
v -0.198515 -0.053196 0.060021
v -0.205517 -0.000000 0.060021
v -0.198515 0.053196 0.060021
v -0.177950 0.102736 0.060021
v -0.145319 0.145319 0.060021
v -0.102736 0.177950 0.060021
v -0.053196 0.198515 0.060021
v 0.000000 0.205517 0.060021
v 0.053196 0.198515 0.060021
v 0.102736 0.177950 0.060021
v 0.145319 0.145319 0.060021
v 0.177950 0.102736 0.060021
v 0.198515 0.053196 0.060021
v 0.205517 -0.000000 0.060021
v 0.198515 -0.053196 0.060021
v 0.177950 -0.102736 0.060021
v 0.145319 -0.145319 0.060021
v 0.102736 -0.177950 0.060021
v 0.053196 -0.198515 0.060021
v 0.000000 -0.088953 0.013123
v -0.023031 -0.085915 0.013123
v -0.044477 -0.077019 0.013123
v -0.062884 -0.062884 0.013123
v -0.077019 -0.044477 0.013123
v -0.085915 -0.023031 0.013123
v -0.088953 -0.000000 0.013123
v -0.085915 0.023031 0.013123
v -0.077019 0.044477 0.013123
v -0.062884 0.062884 0.013123
v -0.044477 0.077019 0.013123
v -0.023031 0.085915 0.013123
v 0.000000 0.088953 0.013123
v 0.023031 0.085915 0.013123
v 0.044477 0.077019 0.013123
v 0.062884 0.062884 0.013123
v 0.077019 0.044477 0.013123
v 0.085915 0.023031 0.013123
v 0.088953 -0.000000 0.013123
v 0.085915 -0.023031 0.013123
v 0.077019 -0.044477 0.013123
v 0.062884 -0.062884 0.013123
v 0.044477 -0.077019 0.013123
v 0.023031 -0.085915 0.013123
v -0.049585 -0.185040 0.739940
v 0.000000 -0.191557 0.739940
v -0.095779 -0.165884 0.739940
v -0.135455 -0.135455 0.739940
v -0.165884 -0.095779 0.739940
v -0.185040 -0.049585 0.739940
v -0.191557 -0.000000 0.739940
v -0.185040 0.049585 0.739940
v -0.165884 0.095779 0.739940
v -0.135455 0.135455 0.739940
v -0.095779 0.165884 0.739940
v -0.049585 0.185040 0.739940
v 0.000000 0.191557 0.739940
v 0.049585 0.185040 0.739940
v 0.095779 0.165884 0.739940
v 0.135455 0.135455 0.739940
v 0.165884 0.095779 0.739940
v 0.185040 0.049585 0.739940
v 0.191557 -0.000000 0.739940
v 0.185040 -0.049585 0.739940
v 0.165884 -0.095779 0.739940
v 0.135455 -0.135455 0.739940
v 0.095779 -0.165884 0.739940
v 0.049585 -0.185040 0.739940
v -0.053460 -0.199484 0.739940
v 0.000000 -0.206486 0.739940
v -0.103265 -0.178831 0.739940
v -0.146024 -0.146024 0.739940
v -0.178831 -0.103265 0.739940
v -0.199484 -0.053460 0.739940
v -0.206486 -0.000000 0.739940
v -0.199484 0.053460 0.739940
v -0.178831 0.103265 0.739940
v -0.146024 0.146024 0.739940
v -0.103265 0.178831 0.739940
v -0.053460 0.199484 0.739940
v 0.000000 0.206486 0.739940
v 0.053460 0.199484 0.739940
v 0.103265 0.178831 0.739940
v 0.146024 0.146024 0.739940
v 0.178831 0.103265 0.739940
v 0.199484 0.053460 0.739940
v 0.206486 -0.000000 0.739940
v 0.199484 -0.053460 0.739940
v 0.178831 -0.103265 0.739940
v 0.146024 -0.146024 0.739940
v 0.103265 -0.178831 0.739940
v 0.053460 -0.199484 0.739940
v 0.048660 0.181649 0.822376
v 0.094017 0.162846 0.822376
v -0.188079 -0.000000 0.822376
v -0.181649 0.048660 0.822376
v 0.132989 -0.132989 0.822376
v 0.094017 -0.162846 0.822376
v 0.132989 0.132989 0.822376
v -0.162846 0.094017 0.822376
v 0.048660 -0.181649 0.822376
v 0.000000 -0.188079 0.822376
v -0.048660 -0.181649 0.822376
v 0.162846 0.094017 0.822376
v -0.132989 0.132989 0.822376
v -0.094017 -0.162846 0.822376
v 0.181649 0.048660 0.822376
v -0.094017 0.162846 0.822376
v -0.132989 -0.132989 0.822376
v 0.188079 -0.000000 0.822376
v -0.048660 0.181649 0.822376
v -0.162846 -0.094017 0.822376
v 0.181649 -0.048660 0.822376
v 0.000000 0.188078 0.822376
v -0.181649 -0.048660 0.822376
v 0.162846 -0.094017 0.822376
v 0.043772 0.163286 0.938939
v -0.169055 -0.000000 0.938939
v 0.119558 -0.119558 0.938939
v 0.000000 -0.169055 0.938939
v 0.084549 0.146420 0.938939
v -0.163286 0.043772 0.938939
v 0.084549 -0.146420 0.938939
v 0.119558 0.119558 0.938939
v -0.146420 0.084549 0.938939
v 0.043772 -0.163286 0.938939
v -0.043772 -0.163286 0.938939
v 0.146420 0.084549 0.938939
v -0.119558 0.119558 0.938939
v -0.084549 -0.146420 0.938939
v 0.163286 0.043772 0.938939
v -0.084549 0.146420 0.938939
v -0.119558 -0.119558 0.938939
v 0.169055 -0.000000 0.938939
v -0.043772 0.163286 0.938939
v -0.146420 -0.084550 0.938939
v 0.163286 -0.043772 0.938939
v 0.000000 0.169055 0.938939
v -0.163286 -0.043772 0.938939
v 0.146420 -0.084550 0.938939
v 0.034745 0.129686 1.025558
v -0.134266 -0.000000 1.025558
v 0.094942 -0.094942 1.025558
v 0.000000 -0.134266 1.025558
v 0.067111 0.116255 1.025558
v -0.129687 0.034744 1.025558
v 0.067111 -0.116256 1.025558
v 0.094942 0.094942 1.025558
v -0.116256 0.067111 1.025558
v 0.034745 -0.129687 1.025558
v -0.034745 -0.129687 1.025558
v 0.116256 0.067111 1.025558
v -0.094942 0.094942 1.025558
v -0.067111 -0.116256 1.025558
v 0.129687 0.034744 1.025558
v -0.067111 0.116255 1.025558
v -0.094942 -0.094942 1.025558
v 0.134266 -0.000000 1.025558
v -0.034745 0.129686 1.025558
v -0.116256 -0.067111 1.025558
v 0.129687 -0.034745 1.025558
v 0.000000 0.134266 1.025558
v -0.129687 -0.034745 1.025558
v 0.116256 -0.067111 1.025558
v -0.006738 -0.025189 1.114027
v -0.024308 -0.090759 1.081000
v -0.013299 -0.049629 1.109624
v -0.019728 -0.073629 1.097514
v 0.000000 -0.093973 1.081000
v 0.000000 -0.026114 1.114027
v 0.000000 -0.076227 1.097514
v 0.000000 -0.051390 1.109624
v -0.013035 -0.022591 1.114027
v -0.046987 -0.081379 1.081000
v -0.025673 -0.044521 1.109624
v -0.038091 -0.066010 1.097514
v -0.018451 -0.018451 1.114027
v -0.066451 -0.066451 1.081000
v -0.036330 -0.036330 1.109624
v -0.053900 -0.053900 1.097514
v -0.022591 -0.013035 1.114027
v -0.081379 -0.046987 1.081000
v -0.044521 -0.025673 1.109624
v -0.066010 -0.038091 1.097514
v -0.025189 -0.006738 1.114027
v -0.090759 -0.024308 1.081000
v -0.049629 -0.013299 1.109624
v -0.073628 -0.019728 1.097514
v -0.026113 -0.000000 1.114027
v -0.093973 -0.000000 1.081000
v -0.051390 -0.000000 1.109624
v -0.076227 -0.000000 1.097514
v -0.025189 0.006737 1.114027
v -0.090759 0.024308 1.081000
v -0.049629 0.013299 1.109624
v -0.073628 0.019728 1.097514
v -0.022591 0.013035 1.114027
v -0.081379 0.046987 1.081000
v -0.044521 0.025673 1.109624
v -0.066010 0.038091 1.097514
v -0.018451 0.018451 1.114027
v -0.066451 0.066451 1.081000
v -0.036330 0.036330 1.109624
v -0.053900 0.053900 1.097514
v -0.013035 0.022590 1.114027
v -0.046987 0.081379 1.081000
v -0.025673 0.044520 1.109624
v -0.038091 0.066010 1.097514
v -0.006738 0.025189 1.114027
v -0.024308 0.090758 1.081000
v -0.013299 0.049629 1.109624
v -0.019728 0.073628 1.097514
v 0.000000 0.026113 1.114027
v 0.000000 0.093973 1.081000
v 0.000000 0.051390 1.109624
v 0.000000 0.076227 1.097514
v 0.006738 0.025189 1.114027
v 0.024308 0.090758 1.081000
v 0.013299 0.049629 1.109624
v 0.019728 0.073628 1.097514
v 0.013035 0.022590 1.114027
v 0.046987 0.081379 1.081000
v 0.025673 0.044520 1.109624
v 0.038091 0.066010 1.097514
v 0.018451 0.018451 1.114027
v 0.066451 0.066451 1.081000
v 0.036330 0.036330 1.109624
v 0.053900 0.053900 1.097514
v 0.022591 0.013035 1.114027
v 0.081379 0.046987 1.081000
v 0.044521 0.025673 1.109624
v 0.066010 0.038091 1.097514
v 0.025189 0.006737 1.114027
v 0.090759 0.024308 1.081000
v 0.049629 0.013299 1.109624
v 0.073628 0.019728 1.097514
v 0.026113 -0.000000 1.114027
v 0.093973 -0.000000 1.081000
v 0.051390 -0.000000 1.109624
v 0.076227 -0.000000 1.097514
v 0.025189 -0.006738 1.114027
v 0.090759 -0.024308 1.081000
v 0.049629 -0.013299 1.109624
v 0.073628 -0.019728 1.097514
v 0.022591 -0.013035 1.114027
v 0.081379 -0.046987 1.081000
v 0.044521 -0.025673 1.109624
v 0.066010 -0.038091 1.097514
v 0.018451 -0.018451 1.114027
v 0.066451 -0.066451 1.081000
v 0.036330 -0.036330 1.109624
v 0.053900 -0.053900 1.097514
v 0.013035 -0.022591 1.114027
v 0.046987 -0.081379 1.081000
v 0.025673 -0.044521 1.109624
v 0.038091 -0.066010 1.097514
v 0.006738 -0.025189 1.114027
v 0.024308 -0.090759 1.081000
v 0.013299 -0.049629 1.109624
v 0.019728 -0.073629 1.097514
v 0.090626 0.156989 0.880679
v -0.175088 0.046898 0.880679
v 0.090626 -0.156989 0.880679
v 0.128189 0.128189 0.880679
v -0.156989 0.090626 0.880679
v 0.046899 -0.175088 0.880679
v -0.046899 -0.175088 0.880679
v 0.156989 0.090626 0.880679
v -0.128189 0.128189 0.880679
v -0.090626 -0.156989 0.880679
v 0.175088 0.046898 0.880679
v -0.090626 0.156989 0.880679
v -0.128189 -0.128189 0.880679
v 0.181253 -0.000000 0.880679
v -0.046899 0.175088 0.880679
v -0.156989 -0.090627 0.880679
v 0.175088 -0.046899 0.880679
v 0.000000 0.181253 0.880679
v -0.175088 -0.046899 0.880679
v 0.156989 -0.090627 0.880679
v 0.046899 0.175088 0.880679
v -0.181253 -0.000000 0.880679
v 0.128189 -0.128189 0.880679
v 0.000000 -0.181253 0.880679
v 0.077063 0.133474 0.982227
v -0.148886 0.039897 0.982227
v 0.077063 -0.133474 0.982227
v 0.108990 0.108989 0.982227
v -0.133474 0.077063 0.982227
v 0.039897 -0.148886 0.982227
v -0.039897 -0.148886 0.982227
v 0.133474 0.077063 0.982227
v -0.108990 0.108989 0.982227
v -0.077063 -0.133474 0.982227
v 0.148886 0.039897 0.982227
v -0.077063 0.133474 0.982227
v -0.108990 -0.108990 0.982227
v 0.154127 -0.000000 0.982227
v -0.039897 0.148886 0.982227
v -0.133474 -0.077063 0.982227
v 0.148886 -0.039897 0.982227
v 0.000000 0.154127 0.982227
v -0.148886 -0.039897 0.982227
v 0.133474 -0.077063 0.982227
v 0.039897 0.148886 0.982227
v -0.154127 -0.000000 0.982227
v 0.108990 -0.108990 0.982227
v 0.000000 -0.154127 0.982227
v 0.000000 -0.205517 0.013123
v -0.053196 -0.198515 0.013123
v -0.102736 -0.177950 0.013123
v -0.145319 -0.145319 0.013123
v -0.177950 -0.102736 0.013123
v -0.198515 -0.053196 0.013123
v -0.205517 -0.000000 0.013123
v -0.198515 0.053196 0.013123
v -0.177950 0.102736 0.013123
v -0.145319 0.145319 0.013123
v -0.102736 0.177950 0.013123
v -0.053196 0.198515 0.013123
v 0.000000 0.205517 0.013123
v 0.053196 0.198515 0.013123
v 0.102736 0.177950 0.013123
v 0.145319 0.145319 0.013123
v 0.177950 0.102736 0.013123
v 0.198515 0.053196 0.013123
v 0.205517 -0.000000 0.013123
v 0.198515 -0.053196 0.013123
v 0.177950 -0.102736 0.013123
v 0.145319 -0.145319 0.013123
v 0.102736 -0.177950 0.013123
v 0.053196 -0.198515 0.013123
v 0.000000 -0.083757 0.029768
v -0.021666 -0.080894 0.029768
v -0.041878 -0.072528 0.029768
v -0.059229 -0.059229 0.029768
v -0.072528 -0.041878 0.029768
v -0.080894 -0.021666 0.029768
v -0.083757 -0.000000 0.029768
v -0.080894 0.021666 0.029768
v -0.072528 0.041878 0.029768
v -0.059229 0.059229 0.029768
v -0.041878 0.072528 0.029768
v -0.021666 0.080894 0.029768
v 0.000000 0.083757 0.029768
v 0.021666 0.080894 0.029768
v 0.041878 0.072528 0.029768
v 0.059229 0.059229 0.029768
v 0.072528 0.041878 0.029768
v 0.080894 0.021666 0.029768
v 0.083757 -0.000000 0.029768
v 0.080894 -0.021666 0.029768
v 0.072528 -0.041878 0.029768
v 0.059229 -0.059229 0.029768
v 0.041878 -0.072528 0.029768
v 0.021666 -0.080894 0.029768
v 0.000000 -0.088953 0.029768
v -0.023031 -0.085915 0.029768
v -0.044477 -0.077019 0.029768
v -0.062884 -0.062884 0.029768
v -0.077019 -0.044477 0.029768
v -0.085915 -0.023031 0.029768
v -0.088953 -0.000000 0.029768
v -0.085915 0.023031 0.029768
v -0.077019 0.044477 0.029768
v -0.062884 0.062884 0.029768
v -0.044477 0.077019 0.029768
v -0.023031 0.085915 0.029768
v 0.000000 0.088953 0.029768
v 0.023031 0.085915 0.029768
v 0.044477 0.077019 0.029768
v 0.062884 0.062884 0.029768
v 0.077019 0.044477 0.029768
v 0.085915 0.023031 0.029768
v 0.088953 -0.000000 0.029768
v 0.085915 -0.023031 0.029768
v 0.077019 -0.044477 0.029768
v 0.062884 -0.062884 0.029768
v 0.044477 -0.077019 0.029768
v 0.023031 -0.085915 0.029768
v 0.000000 -0.083757 0.013563
v -0.021666 -0.080894 0.013563
v -0.041878 -0.072528 0.013563
v -0.059229 -0.059229 0.013563
v -0.072528 -0.041878 0.013563
v -0.080894 -0.021666 0.013563
v -0.083757 -0.000000 0.013563
v -0.080894 0.021666 0.013563
v -0.072528 0.041878 0.013563
v -0.059229 0.059229 0.013563
v -0.041878 0.072528 0.013563
v -0.021666 0.080894 0.013563
v 0.000000 0.083757 0.013563
v 0.021666 0.080894 0.013563
v 0.041878 0.072528 0.013563
v 0.059229 0.059229 0.013563
v 0.072528 0.041878 0.013563
v 0.080894 0.021666 0.013563
v 0.083757 -0.000000 0.013563
v 0.080894 -0.021666 0.013563
v 0.072528 -0.041878 0.013563
v 0.059229 -0.059229 0.013563
v 0.041878 -0.072528 0.013563
v 0.021666 -0.080894 0.013563
vn -0.0005 -0.9887 0.1499
vn -0.2586 -0.9660 -0.0000
vn -0.0000 -1.0000 -0.0000
vn -0.2557 -0.9553 0.1483
vn -0.5001 -0.8660 -0.0000
vn -0.4945 -0.8562 0.1499
vn -0.7071 -0.7071 -0.0000
vn -0.6992 -0.6992 0.1495
vn -0.8662 -0.4998 -0.0000
vn -0.8564 -0.4942 0.1495
vn -0.9660 -0.2586 -0.0000
vn -0.9553 -0.2559 0.1482
vn -1.0000 -0.0000 -0.0000
vn -0.9887 -0.0000 0.1502
vn -0.9660 0.2586 -0.0000
vn -0.9553 0.2557 0.1483
vn -0.8662 0.4998 -0.0000
vn -0.8564 0.4942 0.1495
vn -0.7071 0.7071 -0.0000
vn -0.6992 0.6992 0.1495
vn -0.5001 0.8660 -0.0000
vn -0.4945 0.8562 0.1498
vn -0.2586 0.9660 -0.0000
vn -0.2559 0.9553 0.1482
vn -0.0000 1.0000 -0.0000
vn -0.0000 0.9886 0.1503
vn 0.2586 0.9660 -0.0000
vn 0.2557 0.9553 0.1483
vn 0.5001 0.8660 -0.0000
vn 0.4945 0.8562 0.1499
vn 0.7071 0.7071 -0.0000
vn 0.6992 0.6992 0.1495
vn 0.8662 0.4998 -0.0000
vn 0.8564 0.4942 0.1495
vn 0.9660 0.2586 -0.0000
vn 0.9553 0.2559 0.1482
vn 1.0000 -0.0000 -0.0000
vn 0.9887 -0.0000 0.1502
vn 0.9660 -0.2586 -0.0000
vn 0.9553 -0.2557 0.1483
vn 0.8662 -0.4998 -0.0000
vn 0.8564 -0.4942 0.1495
vn 0.7071 -0.7071 -0.0000
vn 0.6992 -0.6992 0.1495
vn 0.5001 -0.8660 -0.0000
vn -0.8260 -0.4772 0.3001
vn 0.4945 -0.8562 0.1498
vn 0.2586 -0.9660 -0.0000
vn 0.2559 -0.9553 0.1482
vn 0.4079 0.7060 -0.5789
vn 0.2094 0.7819 -0.5872
vn 0.2112 0.7896 -0.5762
vn -0.7822 -0.2092 -0.5868
vn -0.8009 -0.0000 -0.5988
vn -0.7734 -0.2077 -0.5989
vn 0.7894 -0.2110 -0.5765
vn 0.8088 -0.0000 -0.5881
vn 0.8151 -0.0000 -0.5793
vn 0.2112 -0.7896 -0.5762
vn -0.0000 -0.8088 -0.5881
vn 0.2095 -0.7821 -0.5869
vn -0.4079 -0.7060 -0.5789
vn -0.2094 -0.7819 -0.5872
vn -0.2112 -0.7896 -0.5762
vn -0.7894 0.2110 -0.5765
vn -0.8088 -0.0000 -0.5881
vn -0.8151 -0.0000 -0.5793
vn -0.2112 0.7896 -0.5762
vn -0.0000 0.8088 -0.5881
vn -0.2095 0.7821 -0.5869
vn 0.7060 0.4080 -0.5788
vn 0.7822 0.2095 -0.5867
vn 0.7001 0.4045 -0.5884
vn 0.5776 -0.5776 -0.5768
vn 0.4043 -0.7000 -0.5886
vn 0.5723 -0.5723 -0.5873
vn -0.7060 -0.4080 -0.5788
vn -0.7001 -0.4045 -0.5884
vn -0.5776 0.5776 -0.5768
vn -0.4043 0.7000 -0.5886
vn -0.5723 0.5723 -0.5873
vn 0.5776 0.5776 -0.5768
vn 0.4043 0.7000 -0.5886
vn 0.7061 -0.4081 -0.5787
vn 0.7818 -0.2097 -0.5872
vn -0.5776 -0.5776 -0.5768
vn -0.4043 -0.7000 -0.5886
vn -0.7061 0.4081 -0.5787
vn -0.7818 0.2097 -0.5872
vn -0.0000 -0.8151 -0.5793
vn -0.0000 0.8151 -0.5793
vn 0.7894 0.2110 -0.5765
vn 0.4079 -0.7060 -0.5789
vn -0.7894 -0.2110 -0.5765
vn -0.4079 0.7060 -0.5789
vn 0.5726 0.5717 -0.5876
vn 0.7000 -0.4043 -0.5886
vn -0.5726 -0.5717 -0.5876
vn -0.7000 0.4043 -0.5886
vn -0.4997 0.8662 -0.0000
vn 0.5664 -0.5664 -0.5986
vn 0.6940 -0.4003 -0.5984
vn 0.2077 0.7734 -0.5989
vn 0.5664 0.5664 -0.5986
vn 0.4003 0.6940 -0.5984
vn -0.7734 0.2077 -0.5989
vn 0.2077 -0.7734 -0.5989
vn 0.4003 -0.6940 -0.5984
vn -0.0000 -0.8011 -0.5985
vn -0.5664 0.5664 -0.5986
vn -0.6940 0.4003 -0.5984
vn -0.2077 -0.7734 -0.5989
vn 0.7734 0.2077 -0.5989
vn 0.6940 0.4003 -0.5984
vn -0.5664 -0.5664 -0.5986
vn -0.4003 -0.6940 -0.5984
vn 0.8009 -0.0000 -0.5988
vn -0.2077 0.7734 -0.5989
vn -0.4003 0.6940 -0.5984
vn -0.0000 0.8011 -0.5985
vn -0.6940 -0.4003 -0.5984
vn 0.7734 -0.2077 -0.5989
vn -0.0000 -0.0000 1.0000
vn -0.4997 -0.8662 -0.0000
vn 0.9659 0.2590 -0.0000
vn -0.2590 0.9659 -0.0000
vn -0.8662 -0.4997 -0.0000
vn 0.9659 -0.2590 -0.0000
vn -0.9659 -0.2590 -0.0000
vn 0.8662 -0.4997 -0.0000
vn 0.2590 0.9659 -0.0000
vn 0.4997 0.8662 -0.0000
vn -0.9659 0.2590 -0.0000
vn 0.4997 -0.8662 -0.0000
vn -0.8662 0.4997 -0.0000
vn 0.2590 -0.9659 -0.0000
vn -0.2590 -0.9659 -0.0000
vn 0.8662 0.4997 -0.0000
vn 0.2592 -0.9658 -0.0000
vn -0.5000 -0.8660 -0.0000
vn 0.9658 0.2592 -0.0000
vn -0.2592 0.9658 -0.0000
vn -0.5000 0.8660 -0.0000
vn -0.8660 -0.5001 -0.0000
vn 0.9658 -0.2592 -0.0000
vn -0.9658 -0.2592 -0.0000
vn -0.8660 -0.5000 -0.0000
vn 0.8660 -0.5000 -0.0000
vn 0.2592 0.9658 -0.0000
vn 0.8660 -0.5001 -0.0000
vn 0.5000 0.8660 -0.0000
vn -0.9658 0.2592 -0.0000
vn -0.8660 0.5000 -0.0000
vn 0.5000 -0.8660 -0.0000
vn -0.2592 -0.9658 -0.0000
vn 0.8660 0.5001 -0.0000
vn -0.8660 0.5001 -0.0000
vn 0.8660 0.5000 -0.0000
vn 0.4325 0.7494 0.5014
vn 0.5318 0.5318 0.6591
vn 0.6116 0.6116 0.5018
vn -0.8260 0.4772 0.3000
vn -0.6747 0.6747 0.2991
vn 0.2468 0.9226 0.2966
vn 0.4772 0.8260 0.3000
vn 0.9538 -0.0000 0.3006
vn 0.9226 -0.2468 0.2966
vn -0.0000 -0.9537 0.3006
vn -0.2468 -0.9226 0.2966
vn -0.4772 -0.8260 0.3000
vn -0.9538 -0.0000 0.3006
vn -0.9226 0.2468 0.2966
vn -0.0000 0.9537 0.3006
vn 0.9226 0.2468 0.2966
vn 0.4772 -0.8260 0.3000
vn -0.9226 -0.2468 0.2966
vn -0.4772 0.8260 0.3000
vn 0.6748 0.6748 0.2988
vn 0.8260 -0.4772 0.3000
vn -0.6748 -0.6748 0.2988
vn 0.2468 -0.9226 0.2966
vn -0.2468 0.9226 0.2966
vn 0.8260 0.4772 0.3001
vn 0.6747 -0.6747 0.2991
vn -0.4325 -0.7494 0.5014
vn -0.1948 -0.7264 0.6591
vn -0.3758 -0.6515 0.6591
vn -0.7492 0.4328 0.5014
vn -0.7264 0.1948 0.6591
vn -0.6515 0.3758 0.6591
vn 0.4324 -0.7492 0.5017
vn 0.1948 -0.7264 0.6591
vn 0.2238 -0.8356 0.5017
vn 0.7494 0.4325 0.5014
vn 0.6514 0.3761 0.6589
vn -0.5318 0.5318 0.6591
vn -0.6118 0.6118 0.5014
vn 0.0937 0.0001 0.9956
vn 0.0466 0.0812 0.9956
vn -0.0467 0.0803 0.9957
vn 0.7264 0.1948 0.6591
vn 0.8357 0.2242 0.5014
vn -0.4325 0.7494 0.5014
vn -0.3758 0.6515 0.6591
vn -0.5318 -0.5318 0.6591
vn -0.6116 -0.6116 0.5018
vn -0.0000 -0.7522 0.6589
vn -0.0000 -0.8653 0.5012
vn 0.7522 -0.0000 0.6589
vn 0.8653 -0.0000 0.5012
vn -0.1948 0.7264 0.6591
vn -0.2238 0.8356 0.5017
vn -0.7494 -0.4325 0.5014
vn -0.6514 -0.3761 0.6589
vn 0.8357 -0.2242 0.5014
vn 0.7264 -0.1948 0.6591
vn -0.0000 0.7522 0.6589
vn -0.0000 0.8653 0.5012
vn -0.7264 -0.1948 0.6591
vn -0.8357 -0.2242 0.5014
vn 0.7492 -0.4328 0.5014
vn 0.6515 -0.3758 0.6591
vn 0.2242 0.8357 0.5014
vn 0.1948 0.7264 0.6591
vn -0.7522 -0.0000 0.6589
vn -0.8653 -0.0000 0.5012
vn 0.5318 -0.5318 0.6591
vn 0.6118 -0.6118 0.5014
vn 0.3758 0.6515 0.6591
vn -0.8357 0.2242 0.5014
vn 0.3758 -0.6515 0.6591
vn 0.8652 -0.4995 0.0425
vn 0.7049 -0.7049 0.0789
vn 0.7065 -0.7065 0.0423
vn -0.9991 -0.0000 0.0428
vn -0.9629 -0.2582 0.0789
vn -0.9969 -0.0000 0.0790
vn -0.0000 0.9991 0.0428
vn 0.2582 0.9629 0.0789
vn 0.2583 0.9651 0.0426
vn 0.9650 -0.2587 0.0426
vn 0.8634 -0.4983 0.0788
vn -0.9650 -0.2587 0.0426
vn -0.8634 -0.4983 0.0788
vn -0.2582 0.9629 0.0789
vn -0.0000 0.9969 0.0790
vn 0.9991 -0.0000 0.0428
vn 0.9629 -0.2581 0.0793
vn -0.8652 -0.4995 0.0425
vn -0.7049 -0.7049 0.0789
vn -0.2583 0.9651 0.0426
vn -0.4983 0.8634 0.0788
vn 0.9629 0.2582 0.0789
vn 0.9969 -0.0000 0.0790
vn -0.4995 -0.8652 0.0425
vn -0.7065 -0.7065 0.0423
vn -0.4995 0.8652 0.0425
vn -0.7049 0.7049 0.0789
vn 0.9650 0.2587 0.0426
vn 0.8634 0.4983 0.0788
vn -0.2583 -0.9651 0.0426
vn -0.4983 -0.8634 0.0788
vn -0.0000 -0.9991 0.0428
vn 0.2582 -0.9629 0.0789
vn -0.0000 -0.9969 0.0790
vn -0.8652 0.4995 0.0425
vn -0.7065 0.7065 0.0423
vn 0.8652 0.4995 0.0425
vn 0.7049 0.7049 0.0789
vn -0.2582 -0.9629 0.0789
vn 0.2583 -0.9651 0.0426
vn 0.4983 -0.8634 0.0788
vn -0.9650 0.2587 0.0426
vn -0.8634 0.4983 0.0788
vn 0.4995 0.8652 0.0425
vn 0.7065 0.7065 0.0423
vn 0.4995 -0.8652 0.0425
vn -0.9629 0.2581 0.0793
vn 0.4983 0.8634 0.0788
vn 0.6978 -0.6982 0.1600
vn 0.8352 -0.4819 0.2649
vn 0.6818 -0.6818 0.2649
vn -0.9535 -0.2553 0.1600
vn -0.9643 -0.0000 0.2646
vn -0.9871 -0.0000 0.1600
vn 0.2553 0.9535 0.1600
vn -0.0000 0.9643 0.2647
vn 0.2496 0.9315 0.2647
vn 0.8549 -0.4934 0.1602
vn 0.9315 -0.2498 0.2644
vn -0.8551 -0.4933 0.1597
vn -0.9314 -0.2498 0.2649
vn -0.2553 0.9535 0.1600
vn -0.0000 0.9871 0.1600
vn 0.9535 -0.2553 0.1600
vn 0.9643 -0.0000 0.2646
vn -0.6981 -0.6978 0.1600
vn -0.8352 -0.4819 0.2649
vn -0.4934 0.8549 0.1601
vn -0.2496 0.9315 0.2647
vn 0.9535 0.2553 0.1600
vn 0.9871 -0.0000 0.1600
vn -0.4819 -0.8352 0.2649
vn -0.6818 -0.6818 0.2649
vn -0.6978 0.6981 0.1600
vn -0.4819 0.8352 0.2649
vn 0.8551 0.4933 0.1597
vn 0.9314 0.2498 0.2649
vn -0.4933 -0.8551 0.1597
vn -0.2496 -0.9315 0.2647
vn 0.2553 -0.9535 0.1600
vn -0.0000 -0.9643 0.2646
vn -0.0000 -0.9871 0.1600
vn -0.8352 0.4819 0.2649
vn -0.6818 0.6818 0.2649
vn 0.6981 0.6978 0.1600
vn 0.8352 0.4819 0.2649
vn -0.2553 -0.9535 0.1600
vn 0.4934 -0.8549 0.1601
vn 0.2496 -0.9315 0.2647
vn -0.8549 0.4934 0.1602
vn -0.9315 0.2498 0.2644
vn 0.4819 0.8352 0.2649
vn 0.6818 0.6818 0.2649
vn 0.4819 -0.8352 0.2649
vn -0.9535 0.2553 0.1600
vn 0.4933 0.8551 0.1597
vn 0.8044 -0.4643 0.3707
vn 0.6567 -0.6567 0.3707
vn -0.9288 0.0003 0.3707
vn 0.0002 0.9287 0.3707
vn 0.2405 0.8972 0.3704
vn -0.8044 -0.4643 0.3707
vn -0.8972 -0.2405 0.3704
vn 0.9287 -0.0002 0.3707
vn 0.8972 -0.2405 0.3704
vn -0.4643 0.8044 0.3707
vn -0.2405 0.8972 0.3704
vn -0.4643 -0.8044 0.3707
vn -0.6567 -0.6567 0.3707
vn 0.8044 0.4643 0.3707
vn 0.8972 0.2405 0.3704
vn -0.2242 -0.8357 0.5014
vn -0.0003 -0.9288 0.3707
vn -0.8044 0.4643 0.3707
vn -0.6567 0.6567 0.3707
vn -0.2405 -0.8972 0.3704
vn 0.4643 -0.8044 0.3707
vn 0.2405 -0.8972 0.3704
vn 0.4643 0.8044 0.3707
vn 0.6567 0.6567 0.3707
vn -0.8972 0.2405 0.3704
vn -0.0000 -0.5738 0.8190
vn -0.1487 -0.5545 0.8188
vn -0.0000 -0.3185 0.9479
vn -0.0822 -0.3078 0.9479
vn 0.0001 -0.0931 0.9957
vn -0.0247 -0.0896 0.9957
vn -0.2869 -0.4973 0.8188
vn -0.1593 -0.2758 0.9479
vn -0.0467 -0.0805 0.9957
vn -0.4059 -0.4059 0.8188
vn -0.2252 -0.2252 0.9480
vn -0.0660 -0.0660 0.9956
vn -0.4970 -0.2870 0.8189
vn -0.2758 -0.1593 0.9479
vn -0.0809 -0.0462 0.9957
vn -0.5545 -0.1487 0.8188
vn -0.3078 -0.0822 0.9479
vn -0.0897 -0.0239 0.9957
vn -0.5742 -0.0000 0.8187
vn -0.3185 -0.0000 0.9479
vn -0.0933 0.0003 0.9956
vn -0.5547 0.1488 0.8186
vn -0.3074 0.0823 0.9480
vn -0.0897 0.0246 0.9957
vn -0.4970 0.2870 0.8189
vn -0.2758 0.1593 0.9479
vn -0.0804 0.0468 0.9957
vn -0.4059 0.4059 0.8189
vn -0.2252 0.2252 0.9480
vn -0.0660 0.0660 0.9956
vn -0.2871 0.4968 0.8190
vn -0.1593 0.2758 0.9479
vn -0.1488 0.5547 0.8186
vn -0.0823 0.3074 0.9480
vn -0.0237 0.0897 0.9957
vn -0.0000 0.5742 0.8187
vn -0.0000 0.3185 0.9479
vn -0.0000 0.0934 0.9956
vn 0.1487 0.5545 0.8188
vn 0.0822 0.3078 0.9479
vn 0.0248 0.0896 0.9957
vn 0.2869 0.4973 0.8188
vn 0.1593 0.2758 0.9479
vn 0.4059 0.4059 0.8189
vn 0.2252 0.2252 0.9480
vn 0.0660 0.0660 0.9956
vn 0.4970 0.2870 0.8189
vn 0.2758 0.1593 0.9479
vn 0.0810 0.0460 0.9957
vn 0.5545 0.1487 0.8188
vn 0.3078 0.0822 0.9479
vn 0.0897 0.0239 0.9957
vn 0.5742 -0.0000 0.8187
vn 0.3185 -0.0000 0.9479
vn 0.5547 -0.1488 0.8186
vn 0.3074 -0.0823 0.9480
vn 0.0896 -0.0247 0.9957
vn 0.4970 -0.2870 0.8189
vn 0.2758 -0.1593 0.9479
vn 0.0804 -0.0468 0.9957
vn 0.4059 -0.4059 0.8189
vn 0.2252 -0.2252 0.9480
vn 0.0660 -0.0660 0.9956
vn 0.2871 -0.4968 0.8190
vn 0.1593 -0.2758 0.9479
vn 0.0460 -0.0810 0.9957
vn 0.1488 -0.5547 0.8186
vn 0.0823 -0.3074 0.9480
vn 0.0237 -0.0897 0.9957
vn -0.0000 -0.0000 -1.0000
vn -0.2589 0.9659 -0.0000
vn 0.9659 0.2588 -0.0000
vn -0.9659 0.2588 -0.0000
vn -0.4999 -0.8661 -0.0000
vn 0.9659 -0.2588 -0.0000
vn -0.5000 0.8661 -0.0000
vn -0.5000 -0.8661 -0.0000
vn -0.4999 0.8661 -0.0000
vn 0.4999 0.8661 -0.0000
vn -0.9659 -0.2588 -0.0000
vn 0.5000 -0.8661 -0.0000
vn 0.5000 0.8661 -0.0000
vn 0.4999 -0.8661 -0.0000
vn -0.9659 -0.2589 -0.0000
vn 0.9659 -0.2589 -0.0000
vn 0.2589 0.9659 -0.0000
vn -0.9659 0.2589 -0.0000
vn 0.2589 -0.9659 -0.0000
vn -0.2589 -0.9659 -0.0000
vn 0.9659 0.2589 -0.0000
vt 0.201211 0.275970
vt 0.234623 0.694219
vt 0.201211 0.695606
vt 0.234623 0.274582
vt 0.261904 0.692256
vt 0.739961 0.008002
vt 0.773373 0.429026
vt 0.739961 0.427638
vt 0.773373 0.009390
vt 0.810640 0.429745
vt 0.810640 0.010108
vt 0.849221 0.429745
vt 0.849221 0.010108
vt 0.886487 0.429026
vt 0.886487 0.009390
vt 0.919899 0.427638
vt 0.919899 0.008002
vt 0.947180 0.425676
vt 0.528275 0.008002
vt 0.561687 0.429026
vt 0.528275 0.427638
vt 0.561687 0.009390
vt 0.598953 0.429745
vt 0.598953 0.010108
vt 0.637534 0.429745
vt 0.637534 0.010108
vt 0.674801 0.429026
vt 0.674801 0.009390
vt 0.708213 0.427638
vt 0.708213 0.008002
vt 0.735494 0.425676
vt 0.316588 0.008002
vt 0.350001 0.429026
vt 0.316588 0.427638
vt 0.350001 0.009390
vt 0.387267 0.429745
vt 0.387267 0.010108
vt 0.425848 0.429745
vt 0.425848 0.010108
vt 0.463115 0.429026
vt 0.463115 0.009390
vt 0.496527 0.427638
vt 0.496527 0.008002
vt 0.523808 0.425676
vt 0.054684 0.274582
vt 0.088097 0.695606
vt 0.054684 0.694219
vt 0.088097 0.275970
vt 0.125363 0.696325
vt 0.810886 0.004017
vt 0.125363 0.276689
vt 0.163944 0.696325
vt 0.163944 0.276689
vt 0.292875 0.431754
vt 0.289307 0.425676
vt 0.975566 0.307783
vt 0.979275 0.271018
vt 0.994812 0.294755
vt 0.461394 0.435003
vt 0.199490 0.701583
vt 0.163357 0.702280
vt 0.231886 0.700238
vt 0.884766 0.435003
vt 0.673080 0.435003
vt 0.636948 0.435700
vt 0.425261 0.435700
vt 0.387854 0.435700
vt 0.125950 0.702280
vt 0.089817 0.701583
vt 0.848634 0.435699
vt 0.811227 0.435699
vt 0.599540 0.435700
vt 0.563408 0.435003
vt 0.319326 0.433657
vt 0.493790 0.433657
vt 0.742698 0.433657
vt 0.917162 0.433657
vt 0.351721 0.435003
vt 0.057422 0.700238
vt 0.775094 0.435003
vt 0.531012 0.433657
vt 0.602707 0.457677
vt 0.572692 0.475864
vt 0.572692 0.457098
vt 0.526715 0.823844
vt 0.494620 0.847527
vt 0.502663 0.821051
vt 0.994812 0.093444
vt 0.970760 0.063241
vt 0.994812 0.060448
vt 0.947180 0.247335
vt 0.956862 0.279207
vt 0.498330 0.884292
vt 0.517034 0.855716
vt 0.962717 0.117126
vt 0.970760 0.090651
vt 0.947180 0.214339
vt 0.971233 0.244542
vt 0.160191 0.724257
vt 0.129117 0.724257
vt 0.947180 0.401226
vt 0.979275 0.424909
vt 0.956862 0.433098
vt 0.966427 0.153891
vt 0.985131 0.125316
vt 0.979275 0.190656
vt 0.971233 0.217132
vt 0.975566 0.461674
vt 0.994812 0.448647
vt 0.947180 0.368230
vt 0.971233 0.398433
vt 0.422095 0.457677
vt 0.391021 0.457677
vt 0.975566 0.153891
vt 0.956862 0.182467
vt 0.979275 0.344547
vt 0.971233 0.371023
vt 0.498330 0.730400
vt 0.494620 0.767165
vt 0.479083 0.743428
vt 0.633781 0.457677
vt 0.956862 0.336358
vt 0.526715 0.790848
vt 0.517034 0.758976
vt 0.966427 0.000000
vt 0.962717 0.036765
vt 0.947180 0.013027
vt 0.845467 0.457677
vt 0.814393 0.457677
vt 0.502663 0.793641
vt 0.985131 0.028576
vt 0.099101 0.742444
vt 0.056264 0.742820
vt 0.072190 0.741326
vt 0.784378 0.457098
vt 0.757467 0.474746
vt 0.757467 0.455980
vt 0.452110 0.457098
vt 0.422095 0.476442
vt 0.602707 0.476442
vt 0.784378 0.475864
vt 0.479021 0.455980
vt 0.452110 0.475864
vt 0.663796 0.457098
vt 0.633781 0.476442
vt 0.814393 0.476442
vt 0.072190 0.722561
vt 0.050218 0.739745
vt 0.050218 0.720980
vt 0.690707 0.455980
vt 0.663796 0.475864
vt 0.875482 0.457098
vt 0.845467 0.476442
vt 0.099101 0.723678
vt 0.334094 0.455980
vt 0.312122 0.473165
vt 0.312122 0.454400
vt 0.902393 0.455980
vt 0.875482 0.475864
vt 0.361005 0.457098
vt 0.334094 0.474746
vt 0.545781 0.455980
vt 0.523808 0.473165
vt 0.523808 0.454400
vt 0.129117 0.743023
vt 0.217117 0.722561
vt 0.190206 0.742444
vt 0.190206 0.723678
vt 0.361005 0.475864
vt 0.545781 0.474746
vt 0.160191 0.743023
vt 0.735494 0.473165
vt 0.735494 0.454400
vt 0.391021 0.476442
vt 0.996502 0.561372
vt 0.959839 0.529422
vt 0.996909 0.529071
vt 0.072190 0.727738
vt 0.029462 0.728173
vt 0.056264 0.726245
vt 0.254627 0.731255
vt 0.259845 0.728173
vt 0.278797 0.730535
vt 0.125702 0.744889
vt 0.089090 0.744183
vt 0.034681 0.731255
vt 0.050218 0.729319
vt 0.239090 0.729319
vt 0.233043 0.726245
vt 0.233043 0.742820
vt 0.200218 0.744183
vt 0.000700 0.733169
vt 0.010510 0.730535
vt 0.190206 0.726620
vt 0.217117 0.727738
vt 0.163606 0.744889
vt 0.217117 0.741326
vt 0.259845 0.740891
vt 0.026638 0.735650
vt 0.026638 0.733414
vt 0.163606 0.724175
vt 0.200218 0.724881
vt 0.254627 0.737809
vt 0.239090 0.739745
vt 0.034681 0.737809
vt 0.000700 0.735896
vt 0.129117 0.726042
vt 0.160191 0.726042
vt 0.288607 0.735896
vt 0.278797 0.738530
vt 0.029462 0.740891
vt 0.010510 0.738530
vt 0.099101 0.726620
vt 0.125702 0.724175
vt 0.262669 0.733414
vt 0.262669 0.735650
vt 0.089090 0.724881
vt 0.288607 0.733169
vt 0.937472 0.813621
vt 0.923800 0.799770
vt 0.936955 0.799646
vt 0.564192 0.783029
vt 0.528315 0.754412
vt 0.565385 0.754061
vt 0.998102 0.807027
vt 0.959839 0.775092
vt 0.996909 0.774741
vt 0.996909 0.594804
vt 0.959432 0.561723
vt 0.563785 0.815330
vt 0.527122 0.783380
vt 1.000000 0.835965
vt 0.961032 0.807378
vt 0.998102 0.627090
vt 0.959839 0.595155
vt 0.564192 0.848762
vt 0.526715 0.815681
vt 0.029462 0.773592
vt 1.000000 0.656028
vt 0.961032 0.627441
vt 0.565385 0.881048
vt 0.527122 0.849113
vt 0.056264 0.775520
vt 0.998102 0.680040
vt 0.962930 0.656730
vt 1.000000 0.656379
vt 0.567284 0.909986
vt 0.528315 0.881399
vt 0.089090 0.776884
vt 0.996909 0.709008
vt 0.961032 0.680391
vt 0.998102 0.500103
vt 0.962930 0.476793
vt 1.000000 0.476442
vt 0.125702 0.777589
vt 0.200218 0.776884
vt 0.996502 0.741309
vt 0.959839 0.709359
vt 0.961032 0.500454
vt 0.163606 0.777589
vt 0.530214 0.730752
vt 0.567284 0.730400
vt 0.959432 0.741660
vt 0.909798 0.679946
vt 0.877457 0.719640
vt 0.888352 0.679056
vt 0.529424 0.001938
vt 0.562410 0.003308
vt 0.735494 0.006040
vt 0.707063 0.001938
vt 0.733996 0.000000
vt 0.462392 0.003308
vt 0.495377 0.001938
vt 0.200488 0.269888
vt 0.261904 0.272620
vt 0.233473 0.268518
vt 0.260406 0.266580
vt 0.885764 0.003308
vt 0.918750 0.001938
vt 0.674078 0.003308
vt 0.425602 0.004017
vt 0.125610 0.270597
vt 0.848974 0.004017
vt 0.599200 0.004017
vt 0.317738 0.001938
vt 0.350723 0.003308
vt 0.523808 0.006040
vt 0.522309 0.000000
vt 0.741111 0.001938
vt 0.774096 0.003308
vt 0.947180 0.006040
vt 0.945682 0.000000
vt 0.163698 0.270597
vt 0.637288 0.004017
vt 0.387514 0.004017
vt 0.055834 0.268518
vt 0.088819 0.269888
vt 0.227049 0.267915
vt 0.196450 0.269186
vt 0.252034 0.266118
vt 0.269700 0.263917
vt 0.289307 0.261560
vt 0.279450 0.264207
vt 0.278845 0.261461
vt 0.289307 0.258820
vt 0.278845 0.258919
vt 0.279450 0.256173
vt 0.252034 0.254262
vt 0.269700 0.256464
vt 0.227049 0.252465
vt 0.260406 0.253800
vt 0.196450 0.251194
vt 0.233473 0.251863
vt 0.163698 0.249783
vt 0.200488 0.250493
vt 0.162320 0.250536
vt 0.125610 0.249783
vt 0.126987 0.250536
vt 0.088819 0.250493
vt 0.062258 0.252465
vt 0.092858 0.251194
vt 0.037274 0.254262
vt 0.055834 0.251863
vt 0.019607 0.256464
vt 0.028902 0.253800
vt 0.000000 0.258820
vt 0.009858 0.256173
vt 0.010462 0.258919
vt 0.000000 0.261560
vt 0.010462 0.261461
vt 0.009858 0.264207
vt 0.037274 0.266118
vt 0.019607 0.263917
vt 0.062258 0.267915
vt 0.028902 0.266580
vt 0.092858 0.269186
vt 0.126987 0.269845
vt 0.162320 0.269845
vt 0.612341 0.547500
vt 0.613807 0.506078
vt 0.626103 0.506125
vt 0.429449 0.933904
vt 0.424372 0.975103
vt 0.412118 0.974222
vt 0.132272 0.067692
vt 0.153319 0.026969
vt 0.157035 0.067692
vt 0.864433 0.678595
vt 0.860717 0.719318
vt 0.397109 0.973598
vt 0.408004 0.933014
vt 0.844995 0.745869
vt 0.863277 0.746042
vt 0.870334 0.747268
vt 0.843386 0.719318
vt 0.839670 0.678595
vt 0.384085 0.932552
vt 0.380369 0.973276
vt 0.641121 0.505728
vt 0.633800 0.546932
vt 0.170059 0.026647
vt 0.180955 0.067231
vt 0.826646 0.719640
vt 0.815751 0.679056
vt 0.363038 0.973276
vt 0.359322 0.932552
vt 0.657689 0.545768
vt 0.657840 0.504913
vt 0.794305 0.679946
vt 0.811637 0.720264
vt 0.346297 0.973598
vt 0.335402 0.933014
vt 0.675120 0.503736
vt 0.682378 0.544086
vt 0.086908 0.066340
vt 0.091984 0.025141
vt 0.104239 0.026023
vt 0.313957 0.933904
vt 0.331288 0.974222
vt 0.691782 0.502278
vt 0.706186 0.542003
vt 0.119248 0.026647
vt 0.108353 0.067231
vt 0.904721 0.721146
vt 0.892466 0.720264
vt 0.727490 0.539659
vt 0.706692 0.500638
vt 0.135988 0.026969
vt 0.093805 0.211486
vt 0.739258 0.742307
vt 0.699929 0.687761
vt 0.733279 0.684842
vt 0.319907 0.731058
vt 0.290815 0.790006
vt 0.289308 0.732329
vt 0.063765 0.210239
vt 0.705288 0.745280
vt 0.665345 0.690116
vt 0.354360 0.788113
vt 0.320855 0.788758
vt 0.800256 0.477100
vt 0.771163 0.536048
vt 0.769656 0.478371
vt 0.670059 0.747679
vt 0.631883 0.691747
vt 0.354036 0.730400
vt 0.389047 0.788113
vt 0.834708 0.534155
vt 0.801203 0.534801
vt 0.605354 0.750150
vt 0.635974 0.749340
vt 0.389370 0.730400
vt 0.422552 0.788758
vt 0.834385 0.476442
vt 0.869395 0.534155
vt 0.580287 0.750055
vt 0.601824 0.692542
vt 0.161997 0.212132
vt 0.195502 0.211486
vt 0.454099 0.732329
vt 0.423499 0.731058
vt 0.869718 0.476442
vt 0.902900 0.534801
vt 0.225542 0.210239
vt 0.127310 0.212132
vt 0.479083 0.734127
vt 0.452591 0.790006
vt 0.934447 0.478371
vt 0.903848 0.477100
vt 0.763121 0.681559
vt 0.769656 0.738962
vt 0.959432 0.480169
vt 0.932940 0.536048
vt 0.095640 0.170519
vt 0.071938 0.128175
vt 0.098943 0.129297
vt 0.695729 0.646935
vt 0.720984 0.603245
vt 0.727875 0.644121
vt 0.293733 0.830928
vt 0.325992 0.870948
vt 0.298988 0.872070
vt 0.066684 0.169316
vt 0.049889 0.126589
vt 0.662392 0.649204
vt 0.691005 0.605869
vt 0.354985 0.829103
vt 0.322689 0.829726
vt 0.774082 0.576971
vt 0.806341 0.616990
vt 0.779336 0.618112
vt 0.630138 0.650777
vt 0.659915 0.607986
vt 0.388421 0.829103
vt 0.356112 0.870368
vt 0.835334 0.575145
vt 0.803038 0.575768
vt 0.602812 0.610167
vt 0.629834 0.609452
vt 0.420717 0.829726
vt 0.387294 0.870368
vt 0.868769 0.575145
vt 0.836460 0.616410
vt 0.601163 0.651543
vt 0.580689 0.610083
vt 0.161372 0.171142
vt 0.190365 0.129297
vt 0.193668 0.170519
vt 0.444418 0.872070
vt 0.417414 0.870948
vt 0.901066 0.575768
vt 0.867643 0.616410
vt 0.222624 0.169316
vt 0.217369 0.128175
vt 0.127936 0.171142
vt 0.160245 0.129877
vt 0.449673 0.830928
vt 0.466468 0.873656
vt 0.924767 0.618112
vt 0.897762 0.616990
vt 0.129063 0.129877
vt 0.756640 0.640956
vt 0.747811 0.600293
vt 0.930022 0.576971
vt 0.946816 0.619698
vt 0.078353 0.097358
vt 0.102976 0.098381
vt 0.714266 0.572695
vt 0.330025 0.901864
vt 0.305403 0.902887
vt 0.069397 0.065081
vt 0.658584 0.577018
vt 0.686931 0.575087
vt 0.810373 0.647906
vt 0.785751 0.648929
vt 0.385919 0.901335
vt 0.357487 0.901335
vt 0.606518 0.579006
vt 0.631157 0.578354
vt 0.866267 0.647377
vt 0.837836 0.647377
vt 0.594772 0.547433
vt 0.186332 0.098381
vt 0.438004 0.902887
vt 0.413381 0.901864
vt 0.202400 0.066340
vt 0.210954 0.097358
vt 0.130438 0.098910
vt 0.158869 0.098910
vt 0.758644 0.567196
vt 0.744839 0.537214
vt 0.918352 0.648929
vt 0.893730 0.647906
vt 0.738726 0.570003
vt 0.927308 0.681206
vt 0.185068 0.026023
vt 0.165264 0.014293
vt 0.177440 0.013787
vt 0.158548 0.004693
vt 0.166756 0.004352
vt 0.151710 0.000418
vt 0.155879 0.000245
vt 0.632641 0.493408
vt 0.622667 0.493370
vt 0.642470 0.483275
vt 0.635746 0.483249
vt 0.652956 0.478442
vt 0.644825 0.493085
vt 0.650683 0.483057
vt 0.657127 0.478332
vt 0.658388 0.492424
vt 0.659827 0.482612
vt 0.661771 0.478105
vt 0.672405 0.491470
vt 0.669276 0.481968
vt 0.666571 0.477778
vt 0.685923 0.490287
vt 0.678389 0.481171
vt 0.671199 0.477373
vt 0.698018 0.488956
vt 0.686543 0.480274
vt 0.675340 0.476918
vt 0.404489 0.986458
vt 0.414430 0.987173
vt 0.393805 0.995893
vt 0.678713 0.476442
vt 0.693183 0.479338
vt 0.392313 0.985952
vt 0.385597 0.995552
vt 0.382929 1.000000
vt 0.378760 0.999827
vt 0.378733 0.985690
vt 0.376442 0.995376
vt 0.374110 0.999737
vt 0.364673 0.985690
vt 0.366964 0.995376
vt 0.369296 0.999737
vt 0.351093 0.985952
vt 0.357809 0.995552
vt 0.364646 0.999827
vt 0.338917 0.986458
vt 0.349601 0.995893
vt 0.360477 1.000000
vt 0.884838 0.732500
vt 0.894779 0.733215
vt 0.874154 0.741935
vt 0.880855 0.742417
vt 0.872662 0.731994
vt 0.865946 0.741594
vt 0.859108 0.745869
vt 0.859081 0.731732
vt 0.856791 0.741418
vt 0.854459 0.745779
vt 0.845022 0.731732
vt 0.847313 0.741418
vt 0.849645 0.745779
vt 0.831442 0.731994
vt 0.838158 0.741594
vt 0.819266 0.732500
vt 0.829950 0.741935
vt 0.840826 0.746042
vt 0.111868 0.013787
vt 0.101926 0.013072
vt 0.122552 0.004352
vt 0.115850 0.003870
vt 0.133428 0.000245
vt 0.124044 0.014293
vt 0.130760 0.004693
vt 0.137597 0.000418
vt 0.137624 0.014555
vt 0.139915 0.004869
vt 0.142247 0.000508
vt 0.151683 0.014555
vt 0.149393 0.004869
vt 0.147061 0.000508
vt 0.957467 0.537813
vt 0.477119 0.791771
vt 0.577215 0.692448
vt 0.039238 0.208474
vt 0.769656 0.597215
vt 0.383398 0.637171
vt 0.299118 0.652433
vt 0.375194 0.624637
vt 0.289307 0.620138
vt 0.370947 0.610658
vt 0.370947 0.596185
vt 0.289307 0.586704
vt 0.299118 0.554409
vt 0.375194 0.582205
vt 0.383398 0.569672
vt 0.318070 0.525454
vt 0.395000 0.559438
vt 0.344872 0.501813
vt 0.377697 0.485096
vt 0.409209 0.552201
vt 0.414309 0.476442
vt 0.425058 0.548455
vt 0.441465 0.548455
vt 0.452213 0.476442
vt 0.488825 0.485096
vt 0.457313 0.552201
vt 0.471523 0.559438
vt 0.521651 0.501813
vt 0.483125 0.569672
vt 0.548453 0.525455
vt 0.567405 0.554409
vt 0.491328 0.582205
vt 0.577215 0.586704
vt 0.495575 0.596185
vt 0.495575 0.610658
vt 0.577215 0.620139
vt 0.567405 0.652434
vt 0.491328 0.624638
vt 0.483125 0.637171
vt 0.548453 0.681388
vt 0.471523 0.647405
vt 0.521651 0.705030
vt 0.488825 0.721747
vt 0.457313 0.654642
vt 0.452213 0.730400
vt 0.441465 0.658387
vt 0.425057 0.658387
vt 0.414309 0.730400
vt 0.377697 0.721747
vt 0.409209 0.654642
vt 0.395000 0.647405
vt 0.344871 0.705030
vt 0.318070 0.681388
vt 0.722712 0.811554
vt 0.709400 0.798516
vt 0.722225 0.798394
vt 0.907615 0.799646
vt 0.894284 0.785298
vt 0.907439 0.785174
vt 0.922802 0.758652
vt 0.910468 0.748535
vt 0.923624 0.748410
vt 0.938293 0.826148
vt 0.924316 0.813746
vt 0.908132 0.813621
vt 0.894460 0.799770
vt 0.922285 0.771192
vt 0.909646 0.758777
vt 0.708413 0.760393
vt 0.696079 0.750275
vt 0.709234 0.750151
vt 0.908954 0.826148
vt 0.894976 0.813746
vt 0.922109 0.785174
vt 0.909130 0.771316
vt 0.707896 0.772932
vt 0.695257 0.760517
vt 0.937472 0.758652
vt 0.925138 0.748534
vt 0.938293 0.748410
vt 0.922285 0.799646
vt 0.908954 0.785298
vt 0.923624 0.826148
vt 0.909646 0.813746
vt 0.922802 0.813621
vt 0.707720 0.786914
vt 0.694741 0.773057
vt 0.936955 0.771191
vt 0.924316 0.758777
vt 0.909130 0.799770
vt 0.908132 0.758652
vt 0.895798 0.748535
vt 0.908954 0.748410
vt 0.707896 0.801386
vt 0.694565 0.787039
vt 0.936779 0.785174
vt 0.923800 0.771316
vt 0.907615 0.771192
vt 0.894976 0.758777
vt 0.708413 0.815362
vt 0.694741 0.801511
vt 0.923624 0.785298
vt 0.894460 0.771316
vt 0.709234 0.827889
vt 0.695257 0.815486
vt 0.777294 0.823353
vt 0.782106 0.837126
vt 0.773903 0.824592
vt 0.773295 0.810190
vt 0.769656 0.810612
vt 0.773295 0.796562
vt 0.769656 0.796139
vt 0.773903 0.782160
vt 0.777294 0.783399
vt 0.782106 0.769626
vt 0.785018 0.771597
vt 0.793708 0.759392
vt 0.795943 0.761961
vt 0.809322 0.755147
vt 0.807918 0.752156
vt 0.824245 0.751620
vt 0.823766 0.748410
vt 0.839695 0.751620
vt 0.840174 0.748410
vt 0.856022 0.752156
vt 0.854618 0.755147
vt 0.870232 0.759392
vt 0.867997 0.761961
vt 0.881833 0.769626
vt 0.878921 0.771597
vt 0.886646 0.783399
vt 0.890037 0.782160
vt 0.890645 0.796562
vt 0.894284 0.796139
vt 0.890645 0.810190
vt 0.894284 0.810612
vt 0.890037 0.824592
vt 0.886646 0.823353
vt 0.881833 0.837126
vt 0.878921 0.835155
vt 0.870232 0.847359
vt 0.867997 0.844791
vt 0.854618 0.851605
vt 0.856022 0.854596
vt 0.839695 0.855132
vt 0.840174 0.858342
vt 0.824245 0.855132
vt 0.823766 0.858342
vt 0.807918 0.854596
vt 0.809322 0.851605
vt 0.793708 0.847359
vt 0.795943 0.844791
vt 0.785018 0.835155
vt 0.599863 0.843322
vt 0.577215 0.795093
vt 0.671917 0.760491
vt 0.736476 0.798394
vt 0.723485 0.784889
vt 0.736310 0.784767
vt 0.765464 0.759795
vt 0.753413 0.750272
vt 0.766238 0.750151
vt 0.723485 0.823349
vt 0.709887 0.811675
vt 0.736962 0.811554
vt 0.723651 0.798516
vt 0.764978 0.771602
vt 0.752639 0.759916
vt 0.751213 0.759795
vt 0.739162 0.750272
vt 0.751987 0.750151
vt 0.737736 0.823349
vt 0.724137 0.811675
vt 0.764812 0.784767
vt 0.752153 0.771723
vt 0.750727 0.771602
vt 0.738388 0.759916
vt 0.722712 0.759795
vt 0.710660 0.750272
vt 0.723485 0.750151
vt 0.764978 0.798394
vt 0.751987 0.784889
vt 0.766238 0.823349
vt 0.752639 0.811675
vt 0.765464 0.811554
vt 0.750561 0.784767
vt 0.737902 0.771723
vt 0.722225 0.771602
vt 0.709887 0.759916
vt 0.752153 0.798516
vt 0.736962 0.759795
vt 0.724911 0.750272
vt 0.737736 0.750151
vt 0.750727 0.798394
vt 0.737736 0.784889
vt 0.722059 0.784767
vt 0.709400 0.771723
vt 0.736476 0.771602
vt 0.724137 0.759916
vt 0.751213 0.811554
vt 0.737902 0.798516
vt 0.709234 0.784889
vt 0.723651 0.771723
vt 0.751987 0.823349
vt 0.738388 0.811675
vt 0.258336 0.698335
vt 0.520240 0.431754
vt 0.943613 0.431754
vt 0.705476 0.433657
vt 0.479083 0.871265
vt 0.947180 0.140864
vt 0.994812 0.166918
vt 0.994812 0.320810
vt 0.479021 0.474746
vt 0.690707 0.474746
vt 0.902393 0.474746
vt 0.962930 0.836316
vt 0.962930 0.656379
vt 0.530214 0.910337
vt 0.233043 0.775520
vt 0.446959 0.935164
vt 0.840826 0.748147
vt 0.837422 0.747902
vt 0.833769 0.746921
vt 0.835015 0.747602
vt 0.833769 0.747268
vt 0.835015 0.746587
vt 0.837422 0.746287
vt 0.866681 0.746287
vt 0.869088 0.746587
vt 0.870334 0.746921
vt 0.869088 0.747602
vt 0.866681 0.747902
vt 0.863277 0.748147
vt 0.859108 0.748320
vt 0.854459 0.748410
vt 0.849645 0.748410
vt 0.844995 0.748320
vt 0.043041 0.167615
vt 0.577442 0.651453
vt 0.473316 0.832629
vt 0.953664 0.578671
vt 0.058249 0.095912
vt 0.586348 0.578929
vt 0.938456 0.650375
vt 0.649540 0.478429
vt 0.400507 0.996375
vt 0.130024 0.000000
vt 0.925138 0.826272
vt 0.895798 0.826273
vt 0.910468 0.826273
vt 0.696079 0.828013
vt 0.581214 0.781929
vt 0.588938 0.770128
vt 0.599863 0.760491
vt 0.613242 0.753678
vt 0.628165 0.750151
vt 0.643614 0.750151
vt 0.658537 0.753678
vt 0.682841 0.770128
vt 0.694565 0.808720
vt 0.690566 0.781929
vt 0.694565 0.795093
vt 0.690566 0.821884
vt 0.682841 0.833686
vt 0.671917 0.843322
vt 0.658537 0.850135
vt 0.643614 0.853662
vt 0.628165 0.853662
vt 0.613242 0.850135
vt 0.588938 0.833685
vt 0.581213 0.821884
vt 0.577215 0.808720
vt 0.710660 0.823470
vt 0.724911 0.823470
vt 0.753413 0.823470
vt 0.739162 0.823470
s 1
usemtl Material.002
f 2/1/1 3/2/2 1/3/3
f 4/4/4 5/5/5 3/2/2
f 6/6/6 7/7/7 5/8/5
f 8/9/8 9/10/9 7/7/7
f 10/11/10 11/12/11 9/10/9
f 12/13/12 13/14/13 11/12/11
f 14/15/14 15/16/15 13/14/13
f 16/17/16 17/18/17 15/16/15
f 18/19/18 19/20/19 17/21/17
f 20/22/20 21/23/21 19/20/19
f 22/24/22 23/25/23 21/23/21
f 24/26/24 25/27/25 23/25/23
f 26/28/26 27/29/27 25/27/25
f 28/30/28 29/31/29 27/29/27
f 30/32/30 31/33/31 29/34/29
f 32/35/32 33/36/33 31/33/31
f 34/37/34 35/38/35 33/36/33
f 36/39/36 37/40/37 35/38/35
f 38/41/38 39/42/39 37/40/37
f 40/43/40 41/44/41 39/42/39
f 42/45/42 43/46/43 41/47/41
f 44/48/44 45/49/45 43/46/43
f 8/9/8 197/50/46 10/11/10
f 46/51/47 47/52/48 45/49/45
f 48/53/49 1/3/3 47/52/48
f 29/34/50 62/54/51 27/55/52
f 54/56/53 79/57/54 78/58/55
f 39/42/56 67/59/57 37/40/58
f 47/52/59 49/60/60 72/61/61
f 5/5/62 50/62/63 3/2/64
f 15/16/65 55/63/66 13/14/67
f 23/25/68 61/64/69 60/65/70
f 33/36/71 66/66/72 65/67/73
f 43/46/74 71/68/75 70/69/76
f 9/10/77 54/70/53 53/71/78
f 19/20/79 59/72/80 58/73/81
f 31/33/82 63/74/83 29/34/50
f 41/44/84 68/75/85 39/42/56
f 7/7/86 51/76/87 5/8/62
f 17/18/88 56/77/89 15/16/65
f 3/2/64 49/60/60 1/3/90
f 27/29/52 61/64/69 25/27/91
f 35/38/92 67/59/57 66/66/72
f 45/49/93 72/61/61 71/68/75
f 11/12/94 55/63/66 54/70/53
f 21/23/95 60/65/70 59/72/80
f 31/33/82 65/67/73 64/78/96
f 43/46/74 69/79/97 41/47/84
f 7/7/86 53/71/78 52/80/98
f 19/20/79 57/81/99 17/21/88
f 83/82/100 106/83/19 82/84/19
f 69/85/97 94/86/101 93/87/102
f 63/88/83 86/89/103 62/90/51
f 56/91/89 79/57/54 55/92/66
f 71/93/75 94/86/101 70/94/76
f 63/88/83 88/95/104 87/96/105
f 57/97/99 80/98/106 56/91/89
f 71/68/75 96/99/107 95/100/108
f 50/101/63 73/102/109 49/103/60
f 65/104/73 88/95/104 64/105/96
f 57/97/99 82/106/110 81/107/111
f 72/108/61 73/102/109 96/109/107
f 51/110/87 74/111/112 50/101/63
f 65/67/73 90/112/113 89/113/114
f 59/114/80 82/106/110 58/115/81
f 51/110/87 76/116/115 75/117/116
f 66/118/72 91/119/117 90/120/113
f 59/72/80 84/121/118 83/82/119
f 53/56/78 76/116/115 52/122/98
f 68/123/85 91/119/117 67/124/57
f 60/125/70 85/126/120 84/127/118
f 53/71/78 78/128/55 77/129/121
f 69/85/97 92/130/122 68/123/85
f 62/90/51 85/126/120 61/131/69
f 118/132/123 141/133/123 117/134/123
f 76/135/7 99/136/124 75/137/124
f 91/138/37 114/139/125 90/112/125
f 84/121/126 107/140/100 83/82/100
f 77/129/127 100/141/7 76/135/7
f 92/142/128 115/143/37 91/138/37
f 85/144/25 108/145/126 84/121/126
f 78/128/129 101/146/127 77/129/127
f 93/147/130 116/148/128 92/149/128
f 86/150/131 109/151/25 85/144/25
f 79/152/13 102/153/129 78/128/129
f 94/154/43 117/134/130 93/147/130
f 87/155/132 110/156/131 86/157/131
f 80/158/133 103/159/13 79/152/13
f 95/100/134 118/132/43 94/154/43
f 88/160/31 111/161/132 87/155/132
f 81/162/135 104/163/133 80/164/133
f 96/99/136 119/165/134 95/100/134
f 74/166/137 97/167/3 73/168/3
f 89/113/138 112/169/31 88/160/31
f 82/84/19 105/170/135 81/162/135
f 73/168/3 120/171/136 96/99/136
f 75/137/124 98/172/137 74/173/137
f 90/112/125 113/174/138 89/113/138
f 131/175/21 442/176/19 130/177/19
f 110/178/123 135/179/123 134/180/123
f 103/181/123 128/182/123 127/183/123
f 118/132/123 143/184/123 142/185/123
f 112/186/123 135/179/123 111/187/123
f 104/188/123 129/189/123 128/182/123
f 120/171/123 143/184/123 119/165/123
f 97/167/123 122/190/123 121/191/123
f 112/186/123 137/192/123 136/193/123
f 106/194/123 129/189/123 105/195/123
f 97/167/123 144/196/123 120/171/123
f 98/197/123 123/198/123 122/190/123
f 114/199/123 137/192/123 113/200/123
f 106/194/123 131/201/123 130/202/123
f 100/203/123 123/198/123 99/204/123
f 115/205/123 138/206/123 114/199/123
f 108/207/123 131/201/123 107/208/123
f 100/203/123 125/209/123 124/210/123
f 115/205/123 140/211/123 139/212/123
f 109/213/123 132/214/123 108/207/123
f 102/215/123 125/209/123 101/216/123
f 116/148/123 141/133/123 140/211/123
f 109/213/123 134/180/123 133/217/123
f 103/181/123 126/218/123 102/215/123
f 157/219/3 492/220/139 156/221/139
f 124/222/7 435/223/5 123/224/140
f 139/225/37 450/226/141 138/227/141
f 132/228/142 443/229/143 131/175/21
f 125/230/144 436/231/7 124/222/7
f 140/232/145 451/233/37 139/225/37
f 133/234/25 444/235/142 132/228/142
f 126/236/146 437/237/147 125/230/144
f 141/133/148 452/238/145 140/211/145
f 134/239/149 445/240/25 133/234/25
f 127/241/13 438/242/146 126/236/146
f 142/185/43 453/243/150 141/133/148
f 135/244/151 446/245/149 134/246/149
f 128/247/152 439/248/13 127/241/13
f 143/184/45 454/249/43 142/185/43
f 136/250/31 447/251/29 135/244/151
f 129/252/153 440/253/152 128/254/152
f 144/196/139 455/255/154 143/184/45
f 122/190/155 433/256/3 121/191/3
f 137/257/156 448/258/31 136/250/31
f 130/177/19 441/259/157 129/252/153
f 121/191/3 456/260/139 144/196/139
f 123/224/140 434/261/155 122/262/155
f 138/227/141 449/263/158 137/257/156
f 269/264/159 350/265/160 272/266/161
f 20/22/20 201/267/162 202/268/163
f 30/269/30 206/270/164 207/271/165
f 40/43/40 211/272/166 212/273/167
f 48/53/49 194/274/168 2/1/1
f 6/275/6 193/276/169 195/277/170
f 16/17/16 199/278/171 200/279/172
f 24/26/24 205/280/173 26/28/26
f 34/37/34 210/281/174 36/39/36
f 44/48/44 215/282/175 46/51/47
f 10/11/10 198/283/176 12/13/12
f 20/22/20 203/284/177 22/24/22
f 32/35/32 207/285/165 208/286/178
f 42/287/42 212/273/167 213/288/179
f 8/9/8 195/289/170 196/290/180
f 18/291/18 200/279/172 201/292/162
f 4/4/4 194/274/168 193/276/169
f 28/30/28 205/280/173 206/270/164
f 36/39/36 211/272/166 38/41/38
f 46/51/47 216/293/181 48/53/49
f 12/13/12 199/278/171 14/15/14
f 22/24/22 204/294/182 24/26/24
f 32/35/32 209/295/183 34/37/34
f 44/48/44 213/296/179 214/297/184
f 169/298/123 194/274/123 170/299/123
f 171/300/123 193/276/123 169/298/123
f 172/301/123 195/277/123 171/300/123
f 172/301/123 197/302/123 196/303/123
f 173/304/123 198/305/123 197/302/123
f 174/306/123 199/307/123 198/305/123
f 176/308/123 199/307/123 175/309/123
f 177/310/123 200/311/123 176/308/123
f 178/312/123 201/313/123 177/310/123
f 178/312/123 203/314/123 202/315/123
f 179/316/123 204/317/123 203/314/123
f 180/318/123 205/319/123 204/317/123
f 182/320/123 205/319/123 181/321/123
f 183/322/123 206/323/123 182/320/123
f 184/324/123 207/325/123 183/322/123
f 184/324/123 209/326/123 208/327/123
f 185/328/123 210/329/123 209/326/123
f 186/330/123 211/331/123 210/329/123
f 188/332/123 211/331/123 187/333/123
f 189/334/123 212/335/123 188/332/123
f 190/336/123 213/296/123 189/334/123
f 190/336/123 215/282/123 214/297/123
f 191/337/123 216/293/123 215/282/123
f 192/338/123 194/274/123 216/293/123
f 278/339/185 290/340/186 298/341/187
f 273/342/188 318/343/189 322/344/190
f 271/345/191 382/346/192 274/347/193
f 276/348/194 350/265/160 354/349/195
f 273/342/188 326/350/196 277/351/197
f 361/352/198 345/353/199 329/354/200
f 276/348/194 358/355/201 279/356/202
f 280/357/203 326/350/196 330/358/204
f 278/339/185 302/359/205 281/360/206
f 274/347/193 293/361/207 268/362/208
f 279/356/202 362/363/209 282/364/210
f 280/357/203 334/365/211 283/366/212
f 284/367/213 302/359/205 306/368/214
f 285/369/215 362/363/209 366/370/216
f 283/366/212 338/371/217 286/372/218
f 284/367/213 310/373/219 287/374/220
f 288/375/221 366/376/216 370/377/222
f 265/378/223 338/371/217 342/379/224
f 287/374/220 314/380/225 266/381/226
f 288/375/221 374/382/227 267/383/228
f 269/264/159 342/384/224 346/385/229
f 270/386/230 314/380/225 318/387/189
f 271/345/191 374/382/227 378/388/231
f 189/334/232 221/389/233 190/336/234
f 175/390/235 239/391/236 219/392/237
f 181/393/238 217/394/239 182/395/240
f 188/332/241 240/396/242 189/334/232
f 174/397/243 236/398/244 239/391/236
f 181/393/238 235/399/245 238/400/246
f 187/401/247 237/402/248 188/403/241
f 173/404/249 233/405/250 236/398/244
f 180/406/251 232/407/252 235/399/245
f 187/401/247 231/408/253 234/409/254
f 171/410/255 233/405/250 172/411/256
f 179/412/257 229/413/258 232/407/252
f 186/414/259 228/415/260 231/408/253
f 169/416/261 230/417/262 171/410/255
f 170/299/263 225/418/264 226/419/265
f 177/420/266 229/413/258 178/421/267
f 185/422/268 223/423/269 228/415/260
f 170/299/263 227/424/270 169/298/261
f 192/338/271 222/425/272 225/418/264
f 176/426/273 224/427/274 177/420/266
f 183/428/275 223/423/269 184/429/276
f 191/337/277 221/389/233 222/425/272
f 175/390/235 220/430/278 176/431/273
f 182/432/240 218/433/279 183/428/275
f 407/434/280 264/435/281 243/436/282
f 403/437/283 242/438/284 406/439/285
f 405/440/286 262/441/287 241/442/288
f 404/443/289 261/444/290 264/435/281
f 400/445/291 263/446/292 403/437/283
f 399/447/293 262/441/287 402/448/294
f 401/449/295 258/450/296 261/451/290
f 397/452/297 260/453/298 400/445/291
f 396/454/299 259/455/300 399/447/293
f 395/456/301 258/450/296 398/457/302
f 397/452/297 254/458/303 257/459/304
f 393/460/305 256/461/306 396/454/299
f 392/462/307 255/463/308 395/456/301
f 394/464/309 251/465/310 254/458/303
f 390/466/311 244/467/312 408/468/313
f 393/460/305 249/469/314 253/470/315
f 388/471/316 252/472/317 392/462/307
f 391/473/318 244/467/312 251/474/310
f 387/475/319 250/476/320 390/466/311
f 389/477/321 246/478/322 249/469/314
f 388/471/316 245/479/323 248/480/324
f 407/434/280 247/481/325 387/475/319
f 386/482/326 242/438/284 246/483/322
f 385/484/327 241/485/288 245/479/323
f 428/486/328 267/383/228 431/487/329
f 430/488/330 287/374/220 266/381/226
f 426/489/331 265/378/223 429/490/332
f 428/486/328 285/491/215 288/375/221
f 424/492/333 287/374/220 427/493/334
f 426/489/331 283/366/212 286/372/218
f 422/494/335 285/369/215 425/495/336
f 424/492/333 281/360/206 284/367/213
f 420/496/337 283/366/212 423/497/338
f 422/494/335 279/356/202 282/364/210
f 418/498/339 281/360/206 421/499/340
f 420/496/337 277/351/197 280/357/203
f 416/500/341 279/356/202 419/501/342
f 418/498/339 275/502/343 278/339/185
f 432/503/344 274/347/193 268/362/208
f 413/504/345 277/351/197 417/505/346
f 416/500/341 272/266/161 276/348/194
f 432/503/344 275/506/343 415/507/347
f 411/508/348 274/347/193 414/509/349
f 413/510/345 270/386/230 273/511/188
f 409/512/350 272/266/161 412/513/351
f 411/508/348 267/383/228 271/345/191
f 430/488/330 270/386/230 410/514/352
f 409/512/350 265/515/223 269/264/159
f 290/516/186 295/517/353 292/518/354
f 292/518/354 296/519/355 291/520/356
f 291/520/356 294/521/357 289/522/358
f 290/340/186 300/523/359 298/341/187
f 292/524/354 299/525/360 300/523/359
f 291/526/356 297/527/361 299/525/360
f 298/341/187 304/528/362 302/359/205
f 300/523/359 303/529/363 304/528/362
f 303/529/363 297/527/361 301/530/364
f 306/368/214 304/528/362 308/531/365
f 308/531/365 303/529/363 307/532/366
f 303/529/363 305/533/367 307/532/366
f 310/373/219 308/531/365 312/534/368
f 312/534/368 307/532/366 311/535/369
f 311/535/369 305/533/367 309/536/370
f 310/373/219 316/537/371 314/380/225
f 312/534/368 315/538/372 316/537/371
f 311/535/369 313/539/373 315/538/372
f 318/387/189 316/537/371 320/540/374
f 320/540/374 315/538/372 319/541/375
f 319/541/375 313/539/373 317/542/376
f 318/343/189 324/543/377 322/344/190
f 320/544/374 323/545/378 324/543/377
f 319/541/375 321/546/379 323/547/378
f 322/344/190 328/548/380 326/350/196
f 324/543/377 327/549/381 328/548/380
f 327/549/381 321/550/379 325/551/382
f 330/358/204 328/548/380 332/552/383
f 332/552/383 327/549/381 331/553/384
f 327/549/381 329/554/200 331/553/384
f 334/365/211 332/552/383 336/555/385
f 336/555/385 331/553/384 335/556/386
f 335/556/386 329/554/200 333/557/387
f 334/365/211 340/558/388 338/371/217
f 336/555/385 339/559/389 340/558/388
f 335/556/386 337/560/390 339/559/389
f 342/379/224 340/558/388 344/561/391
f 344/561/391 339/559/389 343/562/392
f 343/562/392 337/560/390 341/563/393
f 342/384/224 348/564/394 346/385/229
f 344/565/391 347/566/395 348/564/394
f 343/567/392 345/353/199 347/566/395
f 346/385/229 352/568/396 350/265/160
f 348/564/394 351/569/397 352/568/396
f 351/569/397 345/353/199 349/570/398
f 354/349/195 352/568/396 356/571/399
f 356/571/399 351/569/397 355/572/400
f 351/569/397 353/573/401 355/572/400
f 358/355/201 356/571/399 360/574/402
f 360/574/402 355/572/400 359/575/403
f 359/575/403 353/573/401 357/576/404
f 358/355/201 364/577/405 362/363/209
f 360/574/402 363/578/406 364/577/405
f 359/575/403 361/352/198 363/578/406
f 366/370/216 364/577/405 368/579/407
f 368/579/407 363/578/406 367/580/408
f 367/580/408 361/352/198 365/581/409
f 366/376/216 372/582/410 370/377/222
f 368/583/407 371/584/411 372/582/410
f 367/585/408 369/586/412 371/584/411
f 370/377/222 376/587/413 374/382/227
f 372/582/410 375/588/414 376/587/413
f 375/588/414 369/586/412 373/589/415
f 378/388/231 376/587/413 380/590/416
f 380/590/416 375/588/414 379/591/417
f 375/588/414 377/592/418 379/591/417
f 382/346/192 380/590/416 384/593/419
f 384/593/419 379/591/417 383/594/420
f 383/594/420 377/592/418 381/595/421
f 382/346/192 295/517/353 293/361/207
f 384/593/419 296/519/355 295/517/353
f 383/594/420 294/521/357 296/519/355
f 275/506/343 293/361/207 290/516/186
f 217/596/239 385/484/327 218/433/279
f 220/430/278 406/439/285 386/482/326
f 222/425/272 407/434/280 387/475/319
f 218/433/279 388/471/316 223/423/269
f 220/597/278 389/477/321 224/427/274
f 225/418/264 387/475/319 390/466/311
f 227/424/270 408/468/313 391/473/318
f 228/415/260 388/471/316 392/462/307
f 224/427/274 393/460/305 229/413/258
f 225/418/264 408/468/313 226/419/265
f 227/598/270 394/464/309 230/417/262
f 231/408/253 392/462/307 395/456/301
f 232/407/252 393/460/305 396/454/299
f 230/417/262 397/452/297 233/405/250
f 231/408/253 398/457/302 234/409/254
f 235/399/245 396/454/299 399/447/293
f 236/398/244 397/452/297 400/445/291
f 237/402/248 398/457/302 401/449/295
f 235/399/245 402/448/294 238/400/246
f 239/391/236 400/445/291 403/437/283
f 237/599/248 404/443/289 240/396/242
f 217/394/239 402/448/294 405/440/286
f 239/391/236 406/439/285 219/392/237
f 240/396/242 407/434/280 221/389/233
f 241/485/288 409/512/350 245/479/323
f 242/438/284 410/514/352 246/483/322
f 247/481/325 431/487/329 411/508/348
f 245/479/323 412/513/351 248/480/324
f 246/483/322 413/510/345 249/600/314
f 250/476/320 411/508/348 414/509/349
f 244/467/312 415/507/347 251/474/310
f 252/472/317 412/513/351 416/500/341
f 249/469/314 417/505/346 253/470/315
f 244/467/312 414/509/349 432/503/344
f 251/465/310 418/498/339 254/458/303
f 255/463/308 416/500/341 419/501/342
f 256/461/306 417/505/346 420/496/337
f 254/458/303 421/499/340 257/459/304
f 258/450/296 419/501/342 422/494/335
f 259/455/300 420/496/337 423/497/338
f 260/453/298 421/499/340 424/492/333
f 258/450/296 425/495/336 261/451/290
f 262/441/287 423/497/338 426/489/331
f 263/446/292 424/492/333 427/493/334
f 261/444/290 428/486/328 264/435/281
f 262/441/287 429/490/332 241/442/288
f 242/438/284 427/493/334 430/488/330
f 264/435/281 431/487/329 243/436/282
f 145/601/422 434/602/422 146/603/422
f 146/603/422 435/604/422 147/605/422
f 148/606/422 435/604/422 436/607/422
f 148/606/422 437/608/422 149/609/422
f 150/610/422 437/608/422 438/611/422
f 151/612/422 438/611/422 439/613/422
f 151/612/422 440/614/422 152/615/422
f 152/615/422 441/616/422 153/617/422
f 154/618/422 441/616/422 442/619/422
f 154/618/422 443/620/422 155/621/422
f 156/622/422 443/620/422 444/623/422
f 157/624/422 444/623/422 445/625/422
f 157/624/422 446/626/422 158/627/422
f 158/627/422 447/628/422 159/629/422
f 160/630/422 447/628/422 448/631/422
f 160/630/422 449/632/422 161/633/422
f 162/634/422 449/632/422 450/635/422
f 163/636/422 450/635/422 451/637/422
f 163/636/422 452/638/422 164/639/422
f 164/639/422 453/640/422 165/641/422
f 166/642/422 453/640/422 454/643/422
f 166/642/422 455/644/422 167/645/422
f 168/646/422 455/644/422 456/647/422
f 145/601/422 456/647/422 433/648/422
f 469/649/25 516/650/423 468/651/423
f 150/652/424 485/653/156 149/654/156
f 165/655/157 500/656/425 164/657/425
f 158/658/155 493/659/3 157/219/3
f 151/660/37 486/661/424 150/652/424
f 166/662/19 501/663/157 165/655/157
f 159/664/426 494/665/155 158/666/155
f 152/667/427 487/668/37 151/660/37
f 167/669/428 502/670/19 166/662/19
f 160/671/7 495/672/429 159/664/426
f 153/673/150 488/674/427 152/675/427
f 168/676/142 503/677/430 167/669/428
f 146/678/149 481/679/25 145/680/25
f 161/681/144 496/682/7 160/671/7
f 154/683/43 489/684/150 153/673/150
f 145/680/25 504/685/142 168/676/142
f 147/686/431 482/687/149 146/688/149
f 162/689/432 497/690/144 161/681/144
f 155/691/433 490/692/43 154/683/43
f 148/693/31 483/694/434 147/686/431
f 163/695/13 498/696/432 162/689/432
f 156/221/139 491/697/435 155/691/433
f 149/654/156 484/698/31 148/693/31
f 164/699/425 499/700/13 163/695/13
f 458/701/422 481/702/422 482/703/422
f 459/704/422 482/703/422 483/705/422
f 460/706/422 483/705/422 484/707/422
f 460/706/422 485/708/422 461/709/422
f 461/709/422 486/710/422 462/711/422
f 462/711/422 487/712/422 463/713/422
f 464/714/422 487/712/422 488/715/422
f 465/716/422 488/715/422 489/717/422
f 466/718/422 489/717/422 490/719/422
f 466/718/422 491/720/422 467/721/422
f 467/721/422 492/722/422 468/723/422
f 468/723/422 493/724/422 469/725/422
f 470/726/422 493/724/422 494/727/422
f 471/728/422 494/727/422 495/729/422
f 472/730/422 495/729/422 496/731/422
f 472/730/422 497/732/422 473/733/422
f 473/733/422 498/734/422 474/735/422
f 474/735/422 499/736/422 475/737/422
f 476/738/422 499/736/422 500/739/422
f 477/740/422 500/739/422 501/741/422
f 478/742/422 501/741/422 502/743/422
f 478/742/422 503/744/422 479/745/422
f 479/745/422 504/746/422 480/747/422
f 480/747/422 481/702/422 457/748/422
f 524/749/422 528/750/422 512/751/422
f 462/752/436 509/753/127 461/754/127
f 477/755/130 524/756/437 476/757/437
f 470/758/438 517/759/25 469/649/25
f 463/760/13 510/761/436 462/752/436
f 478/762/43 525/763/130 477/755/130
f 471/764/132 518/765/438 470/766/438
f 464/767/439 511/768/13 463/760/13
f 479/769/134 526/770/43 478/762/43
f 472/771/31 519/772/132 471/764/132
f 465/773/135 512/774/439 464/775/439
f 480/776/440 527/777/134 479/769/134
f 458/778/441 505/779/3 457/780/3
f 473/781/138 520/782/31 472/771/31
f 466/783/19 513/784/135 465/773/135
f 457/780/3 528/785/440 480/776/440
f 459/786/124 506/787/441 458/788/441
f 474/789/442 521/790/138 473/781/138
f 467/791/100 514/792/19 466/783/19
f 460/793/7 507/794/124 459/786/124
f 475/795/37 522/796/442 474/789/442
f 468/651/423 515/797/100 467/791/100
f 461/754/127 508/798/7 460/793/7
f 476/799/437 523/800/37 475/795/37
f 2/1/1 4/4/4 3/2/2
f 4/4/4 6/275/6 5/5/5
f 6/6/6 8/9/8 7/7/7
f 8/9/8 10/11/10 9/10/9
f 10/11/10 12/13/12 11/12/11
f 12/13/12 14/15/14 13/14/13
f 14/15/14 16/17/16 15/16/15
f 16/17/16 18/291/18 17/18/17
f 18/19/18 20/22/20 19/20/19
f 20/22/20 22/24/22 21/23/21
f 22/24/22 24/26/24 23/25/23
f 24/26/24 26/28/26 25/27/25
f 26/28/26 28/30/28 27/29/27
f 28/30/28 30/269/30 29/31/29
f 30/32/30 32/35/32 31/33/31
f 32/35/32 34/37/34 33/36/33
f 34/37/34 36/39/36 35/38/35
f 36/39/36 38/41/38 37/40/37
f 38/41/38 40/43/40 39/42/39
f 40/43/40 42/287/42 41/44/41
f 42/45/42 44/48/44 43/46/43
f 44/48/44 46/51/47 45/49/45
f 8/9/8 196/290/180 197/50/46
f 46/51/47 48/53/49 47/52/48
f 48/53/49 2/1/1 1/3/3
f 29/34/50 63/74/83 62/54/51
f 54/56/53 55/92/66 79/57/54
f 39/42/56 68/75/85 67/59/57
f 47/52/59 1/3/90 49/60/60
f 5/5/62 51/801/87 50/62/63
f 15/16/65 56/77/89 55/63/66
f 23/25/68 25/27/91 61/64/69
f 33/36/71 35/38/92 66/66/72
f 43/46/74 45/49/93 71/68/75
f 9/10/77 11/12/94 54/70/53
f 19/20/79 21/23/95 59/72/80
f 31/33/82 64/78/96 63/74/83
f 41/44/84 69/802/97 68/75/85
f 7/7/86 52/80/98 51/76/87
f 17/18/88 57/803/99 56/77/89
f 3/2/64 50/62/63 49/60/60
f 27/29/52 62/804/51 61/64/69
f 35/38/92 37/40/58 67/59/57
f 45/49/93 47/52/59 72/61/61
f 11/12/94 13/14/67 55/63/66
f 21/23/95 23/25/68 60/65/70
f 31/33/82 33/36/71 65/67/73
f 43/46/74 70/69/76 69/79/97
f 7/7/86 9/10/77 53/71/78
f 19/20/79 58/73/81 57/81/99
f 83/82/100 107/140/100 106/83/19
f 69/85/97 70/94/76 94/86/101
f 63/88/83 87/96/105 86/89/103
f 56/91/89 80/98/106 79/57/54
f 71/93/75 95/805/108 94/86/101
f 63/88/83 64/105/96 88/95/104
f 57/97/99 81/107/111 80/98/106
f 71/68/75 72/61/61 96/99/107
f 50/101/63 74/111/112 73/102/109
f 65/104/73 89/806/114 88/95/104
f 57/97/99 58/115/81 82/106/110
f 72/108/61 49/103/60 73/102/109
f 51/110/87 75/117/116 74/111/112
f 65/67/73 66/66/72 90/112/113
f 59/114/80 83/807/119 82/106/110
f 51/110/87 52/122/98 76/116/115
f 66/118/72 67/124/57 91/119/117
f 59/72/80 60/65/70 84/121/118
f 53/56/78 77/808/121 76/116/115
f 68/123/85 92/130/122 91/119/117
f 60/125/70 61/131/69 85/126/120
f 53/71/78 54/70/53 78/128/55
f 69/85/97 93/87/102 92/130/122
f 62/90/51 86/89/103 85/126/120
f 118/132/123 142/185/123 141/133/123
f 76/135/7 100/141/7 99/136/124
f 91/138/37 115/143/37 114/139/125
f 84/121/126 108/145/126 107/140/100
f 77/129/127 101/146/127 100/141/7
f 92/142/128 116/809/128 115/143/37
f 85/144/25 109/151/25 108/145/126
f 78/128/129 102/153/129 101/146/127
f 93/147/130 117/134/130 116/148/128
f 86/150/131 110/810/131 109/151/25
f 79/152/13 103/159/13 102/153/129
f 94/154/43 118/132/43 117/134/130
f 87/155/132 111/161/132 110/156/131
f 80/158/133 104/811/133 103/159/13
f 95/100/134 119/165/134 118/132/43
f 88/160/31 112/169/31 111/161/132
f 81/162/135 105/170/135 104/163/133
f 96/99/136 120/171/136 119/165/134
f 74/166/137 98/197/137 97/167/3
f 89/113/138 113/174/138 112/169/31
f 82/84/19 106/83/19 105/170/135
f 73/168/3 97/167/3 120/171/136
f 75/137/124 99/136/124 98/172/137
f 90/112/125 114/139/125 113/174/138
f 131/175/21 443/229/143 442/176/19
f 110/178/123 111/187/123 135/179/123
f 103/181/123 104/188/123 128/182/123
f 118/132/123 119/165/123 143/184/123
f 112/186/123 136/193/123 135/179/123
f 104/188/123 105/195/123 129/189/123
f 120/171/123 144/196/123 143/184/123
f 97/167/123 98/197/123 122/190/123
f 112/186/123 113/200/123 137/192/123
f 106/194/123 130/202/123 129/189/123
f 97/167/123 121/191/123 144/196/123
f 98/197/123 99/204/123 123/198/123
f 114/199/123 138/206/123 137/192/123
f 106/194/123 107/208/123 131/201/123
f 100/203/123 124/210/123 123/198/123
f 115/205/123 139/212/123 138/206/123
f 108/207/123 132/214/123 131/201/123
f 100/203/123 101/216/123 125/209/123
f 115/205/123 116/148/123 140/211/123
f 109/213/123 133/217/123 132/214/123
f 102/215/123 126/218/123 125/209/123
f 116/148/123 117/134/123 141/133/123
f 109/213/123 110/178/123 134/180/123
f 103/181/123 127/183/123 126/218/123
f 157/219/3 493/659/3 492/220/139
f 124/222/7 436/231/7 435/223/5
f 139/225/37 451/233/37 450/226/141
f 132/228/142 444/235/142 443/229/143
f 125/230/144 437/237/147 436/231/7
f 140/232/145 452/812/145 451/233/37
f 133/234/25 445/240/25 444/235/142
f 126/236/146 438/242/146 437/237/147
f 141/133/148 453/243/150 452/238/145
f 134/239/149 446/813/149 445/240/25
f 127/241/13 439/248/13 438/242/146
f 142/185/43 454/249/43 453/243/150
f 135/244/151 447/251/29 446/245/149
f 128/247/152 440/814/152 439/248/13
f 143/184/45 455/255/154 454/249/43
f 136/250/31 448/258/31 447/251/29
f 129/252/153 441/259/157 440/253/152
f 144/196/139 456/260/139 455/255/154
f 122/190/155 434/815/155 433/256/3
f 137/257/156 449/263/158 448/258/31
f 130/177/19 442/176/19 441/259/157
f 121/191/3 433/256/3 456/260/139
f 123/224/140 435/223/5 434/261/155
f 138/227/141 450/226/141 449/263/158
f 269/264/159 346/385/229 350/265/160
f 20/22/20 18/19/18 201/267/162
f 30/269/30 28/30/28 206/270/164
f 40/43/40 38/41/38 211/272/166
f 48/53/49 216/293/181 194/274/168
f 6/275/6 4/4/4 193/276/169
f 16/17/16 14/15/14 199/278/171
f 24/26/24 204/294/182 205/280/173
f 34/37/34 209/295/183 210/281/174
f 44/48/44 214/297/184 215/282/175
f 10/11/10 197/50/46 198/283/176
f 20/22/20 202/268/163 203/284/177
f 32/35/32 30/32/30 207/285/165
f 42/287/42 40/43/40 212/273/167
f 8/9/8 6/6/6 195/289/170
f 18/291/18 16/17/16 200/279/172
f 4/4/4 2/1/1 194/274/168
f 28/30/28 26/28/26 205/280/173
f 36/39/36 210/281/174 211/272/166
f 46/51/47 215/282/175 216/293/181
f 12/13/12 198/283/176 199/278/171
f 22/24/22 203/284/177 204/294/182
f 32/35/32 208/286/178 209/295/183
f 44/48/44 42/45/42 213/296/179
f 169/298/123 193/276/123 194/274/123
f 171/300/123 195/277/123 193/276/123
f 172/301/123 196/303/123 195/277/123
f 172/301/123 173/304/123 197/302/123
f 173/304/123 174/306/123 198/305/123
f 174/306/123 175/309/123 199/307/123
f 176/308/123 200/311/123 199/307/123
f 177/310/123 201/313/123 200/311/123
f 178/312/123 202/315/123 201/313/123
f 178/312/123 179/316/123 203/314/123
f 179/316/123 180/318/123 204/317/123
f 180/318/123 181/321/123 205/319/123
f 182/320/123 206/323/123 205/319/123
f 183/322/123 207/325/123 206/323/123
f 184/324/123 208/327/123 207/325/123
f 184/324/123 185/328/123 209/326/123
f 185/328/123 186/330/123 210/329/123
f 186/330/123 187/333/123 211/331/123
f 188/332/123 212/335/123 211/331/123
f 189/334/123 213/296/123 212/335/123
f 190/336/123 214/297/123 213/296/123
f 190/336/123 191/337/123 215/282/123
f 191/337/123 192/338/123 216/293/123
f 192/338/123 170/299/123 194/274/123
f 278/339/185 275/502/343 290/340/186
f 273/342/188 270/816/230 318/343/189
f 271/345/191 378/388/231 382/346/192
f 276/348/194 272/266/161 350/265/160
f 273/342/188 322/344/190 326/350/196
f 297/817/361 289/818/358 377/819/418
f 289/818/358 294/820/357 377/819/418
f 294/820/357 381/821/421 377/819/418
f 377/819/418 373/822/415 369/823/412
f 369/823/412 365/581/409 377/819/418
f 365/581/409 361/352/198 377/819/418
f 361/352/198 357/576/404 345/353/199
f 357/576/404 353/573/401 345/353/199
f 353/573/401 349/570/398 345/353/199
f 345/353/199 341/824/393 337/825/390
f 337/825/390 333/826/387 345/353/199
f 333/826/387 329/354/200 345/353/199
f 329/354/200 325/827/382 321/828/379
f 321/828/379 317/829/376 313/830/373
f 313/830/373 309/831/370 297/817/361
f 309/831/370 305/832/367 297/817/361
f 305/832/367 301/833/364 297/817/361
f 329/354/200 321/828/379 297/817/361
f 321/828/379 313/830/373 297/817/361
f 297/817/361 377/819/418 329/354/200
f 377/819/418 361/352/198 329/354/200
f 276/348/194 354/349/195 358/355/201
f 280/357/203 277/351/197 326/350/196
f 278/339/185 298/341/187 302/359/205
f 274/347/193 382/346/192 293/361/207
f 279/356/202 358/355/201 362/363/209
f 280/357/203 330/358/204 334/365/211
f 284/367/213 281/360/206 302/359/205
f 285/369/215 282/364/210 362/363/209
f 283/366/212 334/365/211 338/371/217
f 284/367/213 306/368/214 310/373/219
f 288/375/221 285/491/215 366/376/216
f 265/378/223 286/372/218 338/371/217
f 287/374/220 310/373/219 314/380/225
f 288/375/221 370/377/222 374/382/227
f 269/264/159 265/515/223 342/384/224
f 270/386/230 266/381/226 314/380/225
f 271/345/191 267/383/228 374/382/227
f 189/334/232 240/396/242 221/389/233
f 175/390/235 174/397/243 239/391/236
f 181/393/238 238/400/246 217/394/239
f 188/332/241 237/599/248 240/396/242
f 174/397/243 173/404/249 236/398/244
f 181/393/238 180/406/251 235/399/245
f 187/401/247 234/409/254 237/402/248
f 173/404/249 172/411/256 233/405/250
f 180/406/251 179/412/257 232/407/252
f 187/401/247 186/414/259 231/408/253
f 171/410/255 230/417/262 233/405/250
f 179/412/257 178/421/267 229/413/258
f 186/414/259 185/422/268 228/415/260
f 169/416/261 227/598/270 230/417/262
f 170/299/263 192/338/271 225/418/264
f 177/420/266 224/427/274 229/413/258
f 185/422/268 184/429/276 223/423/269
f 170/299/263 226/419/265 227/424/270
f 192/338/271 191/337/277 222/425/272
f 176/426/273 220/597/278 224/427/274
f 183/428/275 218/433/279 223/423/269
f 191/337/277 190/336/234 221/389/233
f 175/390/235 219/392/237 220/430/278
f 182/432/240 217/596/239 218/433/279
f 407/434/280 404/443/289 264/435/281
f 403/437/283 263/446/292 242/438/284
f 405/440/286 402/448/294 262/441/287
f 404/443/289 401/834/295 261/444/290
f 400/445/291 260/453/298 263/446/292
f 399/447/293 259/455/300 262/441/287
f 401/449/295 398/457/302 258/450/296
f 397/452/297 257/459/304 260/453/298
f 396/454/299 256/461/306 259/455/300
f 395/456/301 255/463/308 258/450/296
f 397/452/297 394/464/309 254/458/303
f 393/460/305 253/470/315 256/461/306
f 392/462/307 252/472/317 255/463/308
f 394/464/309 391/835/318 251/465/310
f 390/466/311 250/476/320 244/467/312
f 393/460/305 389/477/321 249/469/314
f 388/471/316 248/480/324 252/472/317
f 391/473/318 408/468/313 244/467/312
f 387/475/319 247/481/325 250/476/320
f 389/477/321 386/836/326 246/478/322
f 388/471/316 385/484/327 245/479/323
f 407/434/280 243/436/282 247/481/325
f 386/482/326 406/439/285 242/438/284
f 385/484/327 405/837/286 241/485/288
f 428/486/328 288/375/221 267/383/228
f 430/488/330 427/493/334 287/374/220
f 426/489/331 286/372/218 265/378/223
f 428/486/328 425/838/336 285/491/215
f 424/492/333 284/367/213 287/374/220
f 426/489/331 423/497/338 283/366/212
f 422/494/335 282/364/210 285/369/215
f 424/492/333 421/499/340 281/360/206
f 420/496/337 280/357/203 283/366/212
f 422/494/335 419/501/342 279/356/202
f 418/498/339 278/339/185 281/360/206
f 420/496/337 417/505/346 277/351/197
f 416/500/341 276/348/194 279/356/202
f 418/498/339 415/839/347 275/502/343
f 432/503/344 414/509/349 274/347/193
f 413/504/345 273/342/188 277/351/197
f 416/500/341 412/513/351 272/266/161
f 432/503/344 268/362/208 275/506/343
f 411/508/348 271/345/191 274/347/193
f 413/510/345 410/514/352 270/386/230
f 409/512/350 269/264/159 272/266/161
f 411/508/348 431/487/329 267/383/228
f 430/488/330 266/381/226 270/386/230
f 409/512/350 429/840/332 265/515/223
f 290/516/186 293/361/207 295/517/353
f 292/518/354 295/517/353 296/519/355
f 291/520/356 296/519/355 294/521/357
f 290/340/186 292/524/354 300/523/359
f 292/524/354 291/526/356 299/525/360
f 291/526/356 289/841/358 297/527/361
f 298/341/187 300/523/359 304/528/362
f 300/523/359 299/525/360 303/529/363
f 303/529/363 299/525/360 297/527/361
f 306/368/214 302/359/205 304/528/362
f 308/531/365 304/528/362 303/529/363
f 303/529/363 301/530/364 305/533/367
f 310/373/219 306/368/214 308/531/365
f 312/534/368 308/531/365 307/532/366
f 311/535/369 307/532/366 305/533/367
f 310/373/219 312/534/368 316/537/371
f 312/534/368 311/535/369 315/538/372
f 311/535/369 309/536/370 313/539/373
f 318/387/189 314/380/225 316/537/371
f 320/540/374 316/537/371 315/538/372
f 319/541/375 315/538/372 313/539/373
f 318/343/189 320/544/374 324/543/377
f 320/544/374 319/842/375 323/545/378
f 319/541/375 317/542/376 321/546/379
f 322/344/190 324/543/377 328/548/380
f 324/543/377 323/545/378 327/549/381
f 327/549/381 323/545/378 321/550/379
f 330/358/204 326/350/196 328/548/380
f 332/552/383 328/548/380 327/549/381
f 327/549/381 325/551/382 329/554/200
f 334/365/211 330/358/204 332/552/383
f 336/555/385 332/552/383 331/553/384
f 335/556/386 331/553/384 329/554/200
f 334/365/211 336/555/385 340/558/388
f 336/555/385 335/556/386 339/559/389
f 335/556/386 333/557/387 337/560/390
f 342/379/224 338/371/217 340/558/388
f 344/561/391 340/558/388 339/559/389
f 343/562/392 339/559/389 337/560/390
f 342/384/224 344/565/391 348/564/394
f 344/565/391 343/567/392 347/566/395
f 343/567/392 341/824/393 345/353/199
f 346/385/229 348/564/394 352/568/396
f 348/564/394 347/566/395 351/569/397
f 351/569/397 347/566/395 345/353/199
f 354/349/195 350/265/160 352/568/396
f 356/571/399 352/568/396 351/569/397
f 351/569/397 349/570/398 353/573/401
f 358/355/201 354/349/195 356/571/399
f 360/574/402 356/571/399 355/572/400
f 359/575/403 355/572/400 353/573/401
f 358/355/201 360/574/402 364/577/405
f 360/574/402 359/575/403 363/578/406
f 359/575/403 357/576/404 361/352/198
f 366/370/216 362/363/209 364/577/405
f 368/579/407 364/577/405 363/578/406
f 367/580/408 363/578/406 361/352/198
f 366/376/216 368/583/407 372/582/410
f 368/583/407 367/585/408 371/584/411
f 367/585/408 365/843/409 369/586/412
f 370/377/222 372/582/410 376/587/413
f 372/582/410 371/584/411 375/588/414
f 375/588/414 371/584/411 369/586/412
f 378/388/231 374/382/227 376/587/413
f 380/590/416 376/587/413 375/588/414
f 375/588/414 373/589/415 377/592/418
f 382/346/192 378/388/231 380/590/416
f 384/593/419 380/590/416 379/591/417
f 383/594/420 379/591/417 377/592/418
f 382/346/192 384/593/419 295/517/353
f 384/593/419 383/594/420 296/519/355
f 383/594/420 381/595/421 294/521/357
f 275/506/343 268/362/208 293/361/207
f 217/596/239 405/837/286 385/484/327
f 220/430/278 219/392/237 406/439/285
f 222/425/272 221/389/233 407/434/280
f 218/433/279 385/484/327 388/471/316
f 220/597/278 386/836/326 389/477/321
f 225/418/264 222/425/272 387/475/319
f 227/424/270 226/419/265 408/468/313
f 228/415/260 223/423/269 388/471/316
f 224/427/274 389/477/321 393/460/305
f 225/418/264 390/466/311 408/468/313
f 227/598/270 391/835/318 394/464/309
f 231/408/253 228/415/260 392/462/307
f 232/407/252 229/413/258 393/460/305
f 230/417/262 394/464/309 397/452/297
f 231/408/253 395/456/301 398/457/302
f 235/399/245 232/407/252 396/454/299
f 236/398/244 233/405/250 397/452/297
f 237/402/248 234/409/254 398/457/302
f 235/399/245 399/447/293 402/448/294
f 239/391/236 236/398/244 400/445/291
f 237/599/248 401/834/295 404/443/289
f 217/394/239 238/400/246 402/448/294
f 239/391/236 403/437/283 406/439/285
f 240/396/242 404/443/289 407/434/280
f 241/485/288 429/840/332 409/512/350
f 242/438/284 430/488/330 410/514/352
f 247/481/325 243/436/282 431/487/329
f 245/479/323 409/512/350 412/513/351
f 246/483/322 410/514/352 413/510/345
f 250/476/320 247/481/325 411/508/348
f 244/467/312 432/503/344 415/507/347
f 252/472/317 248/480/324 412/513/351
f 249/469/314 413/504/345 417/505/346
f 244/467/312 250/476/320 414/509/349
f 251/465/310 415/839/347 418/498/339
f 255/463/308 252/472/317 416/500/341
f 256/461/306 253/470/315 417/505/346
f 254/458/303 418/498/339 421/499/340
f 258/450/296 255/463/308 419/501/342
f 259/455/300 256/461/306 420/496/337
f 260/453/298 257/459/304 421/499/340
f 258/450/296 422/494/335 425/495/336
f 262/441/287 259/455/300 423/497/338
f 263/446/292 260/453/298 424/492/333
f 261/444/290 425/838/336 428/486/328
f 262/441/287 426/489/331 429/490/332
f 242/438/284 263/446/292 427/493/334
f 264/435/281 428/486/328 431/487/329
f 145/601/422 433/648/422 434/602/422
f 146/603/422 434/602/422 435/604/422
f 148/606/422 147/605/422 435/604/422
f 148/606/422 436/607/422 437/608/422
f 150/610/422 149/609/422 437/608/422
f 151/612/422 150/610/422 438/611/422
f 151/612/422 439/613/422 440/614/422
f 152/615/422 440/614/422 441/616/422
f 154/618/422 153/617/422 441/616/422
f 154/618/422 442/619/422 443/620/422
f 156/622/422 155/621/422 443/620/422
f 157/624/422 156/622/422 444/623/422
f 157/624/422 445/625/422 446/626/422
f 158/627/422 446/626/422 447/628/422
f 160/630/422 159/629/422 447/628/422
f 160/630/422 448/631/422 449/632/422
f 162/634/422 161/633/422 449/632/422
f 163/636/422 162/634/422 450/635/422
f 163/636/422 451/637/422 452/638/422
f 164/639/422 452/638/422 453/640/422
f 166/642/422 165/641/422 453/640/422
f 166/642/422 454/643/422 455/644/422
f 168/646/422 167/645/422 455/644/422
f 145/601/422 168/646/422 456/647/422
f 469/649/25 517/759/25 516/650/423
f 150/652/424 486/661/424 485/653/156
f 165/655/157 501/663/157 500/656/425
f 158/658/155 494/844/155 493/659/3
f 151/660/37 487/668/37 486/661/424
f 166/662/19 502/670/19 501/663/157
f 159/664/426 495/672/429 494/665/155
f 152/667/427 488/845/427 487/668/37
f 167/669/428 503/677/430 502/670/19
f 160/671/7 496/682/7 495/672/429
f 153/673/150 489/684/150 488/674/427
f 168/676/142 504/685/142 503/677/430
f 146/678/149 482/846/149 481/679/25
f 161/681/144 497/690/144 496/682/7
f 154/683/43 490/692/43 489/684/150
f 145/680/25 481/679/25 504/685/142
f 147/686/431 483/694/434 482/687/149
f 162/689/432 498/696/432 497/690/144
f 155/691/433 491/697/435 490/692/43
f 148/693/31 484/698/31 483/694/434
f 163/695/13 499/700/13 498/696/432
f 156/221/139 492/220/139 491/697/435
f 149/654/156 485/653/156 484/698/31
f 164/699/425 500/847/425 499/700/13
f 458/701/422 457/748/422 481/702/422
f 459/704/422 458/701/422 482/703/422
f 460/706/422 459/704/422 483/705/422
f 460/706/422 484/707/422 485/708/422
f 461/709/422 485/708/422 486/710/422
f 462/711/422 486/710/422 487/712/422
f 464/714/422 463/713/422 487/712/422
f 465/716/422 464/714/422 488/715/422
f 466/718/422 465/716/422 489/717/422
f 466/718/422 490/719/422 491/720/422
f 467/721/422 491/720/422 492/722/422
f 468/723/422 492/722/422 493/724/422
f 470/726/422 469/725/422 493/724/422
f 471/728/422 470/726/422 494/727/422
f 472/730/422 471/728/422 495/729/422
f 472/730/422 496/731/422 497/732/422
f 473/733/422 497/732/422 498/734/422
f 474/735/422 498/734/422 499/736/422
f 476/738/422 475/737/422 499/736/422
f 477/740/422 476/738/422 500/739/422
f 478/742/422 477/740/422 501/741/422
f 478/742/422 502/743/422 503/744/422
f 479/745/422 503/744/422 504/746/422
f 480/747/422 504/746/422 481/702/422
f 528/750/422 505/848/422 506/849/422
f 506/849/422 507/850/422 528/750/422
f 507/850/422 508/851/422 528/750/422
f 508/851/422 509/852/422 510/853/422
f 510/853/422 511/854/422 512/751/422
f 512/751/422 513/855/422 516/856/422
f 513/855/422 514/857/422 516/856/422
f 514/857/422 515/858/422 516/856/422
f 516/856/422 517/859/422 518/860/422
f 518/860/422 519/861/422 520/862/422
f 520/862/422 521/863/422 524/749/422
f 521/863/422 522/864/422 524/749/422
f 522/864/422 523/865/422 524/749/422
f 524/749/422 525/866/422 528/750/422
f 525/866/422 526/867/422 528/750/422
f 526/867/422 527/868/422 528/750/422
f 508/851/422 510/853/422 528/750/422
f 510/853/422 512/751/422 528/750/422
f 516/856/422 518/860/422 512/751/422
f 518/860/422 520/862/422 512/751/422
f 520/862/422 524/749/422 512/751/422
f 462/752/436 510/761/436 509/753/127
f 477/755/130 525/763/130 524/756/437
f 470/758/438 518/869/438 517/759/25
f 463/760/13 511/768/13 510/761/436
f 478/762/43 526/770/43 525/763/130
f 471/764/132 519/772/132 518/765/438
f 464/767/439 512/870/439 511/768/13
f 479/769/134 527/777/134 526/770/43
f 472/771/31 520/782/31 519/772/132
f 465/773/135 513/784/135 512/774/439
f 480/776/440 528/785/440 527/777/134
f 458/778/441 506/871/441 505/779/3
f 473/781/138 521/790/138 520/782/31
f 466/783/19 514/792/19 513/784/135
f 457/780/3 505/779/3 528/785/440
f 459/786/124 507/794/124 506/787/441
f 474/789/442 522/796/442 521/790/138
f 467/791/100 515/797/100 514/792/19
f 460/793/7 508/798/7 507/794/124
f 475/795/37 523/800/37 522/796/442
f 468/651/423 516/650/423 515/797/100
f 461/754/127 509/753/127 508/798/7
f 476/799/437 524/872/437 523/800/37
