# Blender 4.4.1
# www.blender.org
mtllib book.mtl
o OldBook001
v 0.407177 -0.799598 -1.455944
v 0.407177 -0.799598 0.987116
v 0.000000 -0.799598 -1.455944
v -0.000000 -0.799598 0.987116
v 0.407178 0.779452 -1.455944
v 0.407177 0.779453 0.987116
v 0.000001 0.779452 -1.455944
v -0.000000 0.779453 0.987116
v 0.050897 -0.799598 0.987116
v 0.050898 0.829108 -1.455944
v 0.050897 -0.799598 -1.455944
v 0.050897 0.829108 0.987116
v 0.356280 -0.799598 -1.455944
v 0.356280 0.829108 0.987116
v 0.356280 -0.799598 0.987116
v 0.356281 0.829108 -1.455944
v 0.050897 0.777466 0.987116
v 0.356280 0.777466 0.987116
v 0.050898 0.777466 -1.455944
v 0.356281 0.777466 -1.455944
v 0.050897 -0.749943 -1.394868
v 0.356280 -0.749943 0.926040
v 0.050897 -0.749943 0.926040
v 0.356280 -0.749943 -1.394868
v 0.050897 0.777466 -1.394868
v 0.356280 0.777466 -1.394868
v 0.050897 0.777466 0.926040
v 0.356280 0.777466 0.926040
vn 0.5774 -0.5773 0.5773
vn -0.5773 -0.5774 -0.5774
vn 0.5774 -0.5773 -0.5773
vn 0.2924 0.7183 0.6313
vn 0.7162 0.3018 -0.6293
vn 0.2924 0.7183 -0.6313
vn -0.5774 -0.5773 0.5774
vn -0.7162 0.3018 -0.6293
vn -0.3015 -0.3015 -0.9045
vn 0.5773 -0.5773 -0.5774
vn -0.5774 -0.5773 -0.5773
vn -0.2924 0.7183 -0.6313
vn -0.2924 0.7183 0.6313
vn -0.9045 -0.3015 -0.3015
vn -0.7162 0.3019 0.6293
vn 0.3015 -0.3015 -0.9045
vn -0.9045 -0.3015 0.3015
vn 0.5773 -0.5773 0.5774
vn 0.3015 -0.3015 0.9045
vn -0.3015 -0.3015 0.9045
vn -0.5774 -0.5773 0.5773
vn 0.9045 -0.3015 0.3015
vn 0.7162 0.3018 0.6293
vn -0.5774 -0.5774 0.5773
vn 0.5774 -0.5773 0.5774
vn -0.5774 -0.5773 -0.5774
vn 0.5774 -0.5774 -0.5773
vn 0.9045 -0.3015 -0.3015
vt 0.961978 0.898388
vt 0.956360 0.617453
vt 0.961978 0.617453
vt 0.706948 0.868294
vt 0.124922 0.851832
vt 0.124922 0.868294
vt 0.440034 0.074334
vt 0.812530 0.656360
vt 0.440034 0.656360
vt 0.888299 0.812670
vt 0.882971 0.816250
vt 0.882667 0.810655
vt 0.931841 0.566594
vt 0.939696 0.568407
vt 0.124922 0.939100
vt 0.706948 0.939101
vt 0.947697 0.578477
vt 0.706948 0.955563
vt 0.124922 0.955563
vt 0.892361 0.843293
vt 0.889796 0.840837
vt 0.894118 0.840838
vt 0.943316 0.927294
vt 0.945978 0.925687
vt 0.973300 0.617453
vt 0.967681 0.891364
vt 0.967681 0.624476
vt 0.978918 0.898388
vt 0.978918 0.617453
vt 0.866727 0.566594
vt 0.823185 0.812670
vt 0.817553 0.810655
vt 0.829004 0.840838
vt 0.882583 0.921017
vt 0.880864 0.925687
vt 0.882583 0.578477
vt 0.874583 0.568407
vt 0.878202 0.927294
vt 0.827246 0.843293
vt 0.027908 0.654031
vt 0.400405 0.072005
vt 0.400405 0.654031
vt 0.869704 0.467568
vt 0.950386 0.053939
vt 0.869704 0.053939
vt 0.824682 0.840837
vt 0.896400 0.813381
vt 0.817857 0.816250
vt 0.870022 0.054257
vt 0.950703 0.467886
vt 0.870022 0.467886
vt 0.831286 0.813381
vt 0.967597 0.891364
vt 0.947697 0.921017
vt 0.138213 0.734389
vt 0.691137 0.804232
vt 0.138213 0.804232
vt 0.956360 0.898388
vt 0.706948 0.851832
vt 0.812530 0.074334
vt 0.973300 0.898388
vt 0.833065 0.839292
vt 0.027908 0.072006
vt 0.950386 0.467568
vt 0.898179 0.839292
vt 0.950703 0.054257
vt 0.967597 0.624476
vt 0.691137 0.734389
s 1
usemtl OldBook001_mat
f 9/1/1 3/2/2 11/3/3
f 14/4/4 5/5/5 16/6/6
f 4/7/7 7/8/8 3/9/2
f 20/10/9 16/11/6 5/12/5
f 20/10/9 1/13/10 13/14/11
f 14/4/4 10/15/12 12/16/13
f 24/17/14 20/10/9 13/14/11
f 8/18/15 10/15/12 7/19/8
f 7/20/8 10/21/12 19/22/16
f 3/23/2 19/22/16 11/24/3
f 13/25/11 22/26/17 24/27/14
f 2/28/18 13/25/11 1/29/10
f 4/30/7 17/31/19 8/32/15
f 18/33/20 22/34/17 15/35/21
f 23/36/22 17/31/19 9/37/1
f 18/33/20 2/38/18 6/39/23
f 5/40/5 2/41/18 1/42/10
f 23/43/22 28/44/24 27/45/25
f 14/46/4 18/33/20 6/39/23
f 26/47/26 19/22/16 20/10/9
f 8/32/15 17/31/19 12/48/13
f 25/49/27 24/50/14 21/51/28
f 27/52/25 18/33/20 17/31/19
f 11/3/3 23/53/22 9/1/1
f 20/10/9 10/21/12 16/11/6
f 19/22/16 21/54/28 11/24/3
f 23/55/22 24/56/14 22/57/17
f 18/33/20 12/48/13 17/31/19
f 9/1/1 4/58/7 3/2/2
f 14/4/4 6/59/23 5/5/5
f 4/7/7 8/60/15 7/8/8
f 20/10/9 5/12/5 1/13/10
f 14/4/4 16/6/6 10/15/12
f 24/17/14 26/47/26 20/10/9
f 8/18/15 12/16/13 10/15/12
f 3/23/2 7/20/8 19/22/16
f 13/25/11 15/61/21 22/26/17
f 2/28/18 15/61/21 13/25/11
f 4/30/7 9/37/1 17/31/19
f 18/33/20 28/62/24 22/34/17
f 23/36/22 27/52/25 17/31/19
f 18/33/20 15/35/21 2/38/18
f 5/40/5 6/63/23 2/41/18
f 23/43/22 22/64/17 28/44/24
f 26/47/26 25/65/27 19/22/16
f 25/49/27 26/66/26 24/50/14
f 27/52/25 28/62/24 18/33/20
f 11/3/3 21/67/28 23/53/22
f 20/10/9 19/22/16 10/21/12
f 19/22/16 25/65/27 21/54/28
f 23/55/22 21/68/28 24/56/14
f 18/33/20 14/46/4 12/48/13
